<svg width="60" height="60" viewBox="0 0 60 60" fill="none" xmlns="http://www.w3.org/2000/svg">
    <path d="M30.2431 34.4014C20.0333 34.4014 11.7266 42.4049 11.7266 52.2431C11.7266 52.6607 12.0779 52.9997 12.5119 52.9997H47.9743C48.4078 52.9997 48.7596 52.6607 48.7596 52.2431C48.7596 42.4049 40.4534 34.4014 30.2431 34.4014ZM13.315 51.4865C13.7265 42.8327 21.162 35.9146 30.2431 35.9146C39.3241 35.9146 46.7601 42.8327 47.1711 51.4865H13.315Z" fill="#612848"/>
    <path d="M29.9346 12.0273C24.0561 12.0273 19.2734 16.6352 19.2734 22.2988C19.2734 27.9624 24.0561 32.5702 29.9346 32.5702C35.8135 32.5702 40.5957 27.9624 40.5957 22.2988C40.5957 16.6352 35.813 12.0273 29.9346 12.0273ZM29.9346 31.057C24.9221 31.057 20.8441 27.1281 20.8441 22.2988C20.8441 17.4695 24.9221 13.5406 29.9346 13.5406C34.9471 13.5406 39.025 17.4695 39.025 22.2988C39.025 27.1281 34.9471 31.057 29.9346 31.057Z" fill="#612848"/>
    <path d="M16.9832 27.9219C17.4172 27.9219 17.7685 27.5835 17.7685 27.1653V17.3736C17.7685 17.3251 17.7627 17.2782 17.7538 17.2323C19.858 12.5317 24.5883 9.51274 29.9353 9.51274C35.3782 9.51274 40.1876 12.6411 42.2315 17.4906V27.1083C41.5729 28.671 40.6164 30.0763 39.3782 31.2849C39.0734 31.5825 39.0766 32.0612 39.3855 32.3547C39.5384 32.5005 39.7378 32.5731 39.9373 32.5731C40.1399 32.5731 40.3425 32.498 40.4959 32.3482C41.8153 31.0604 42.8493 29.5719 43.5812 27.9224H44.1331C47.3681 27.9224 50 25.3867 50 22.2699C50 19.1531 47.3681 16.6174 44.1331 16.6174H43.5477C41.1902 11.37 35.9059 8 29.9353 8C23.9616 8 18.6769 11.3695 16.3203 16.6174H15.8669C12.6319 16.6174 10 19.1531 10 22.2699C10 25.3867 12.6319 27.9224 15.8669 27.9224H16.9832V27.9219ZM48.4293 22.2694C48.4293 24.5519 46.5016 26.4087 44.1331 26.4087H43.8022V18.1302H44.1331C46.5021 18.1302 48.4293 19.9869 48.4293 22.2694ZM11.5707 22.2694C11.5707 19.9869 13.4979 18.1302 15.8669 18.1302H16.1978V26.4087H15.8669C13.4979 26.4087 11.5707 24.5519 11.5707 22.2694Z" fill="#612848"/>
</svg>
