<svg width="60" height="60" viewBox="0 0 60 60" fill="none" xmlns="http://www.w3.org/2000/svg">
    <path d="M52.6474 21.614L30.9401 8.12442C30.6737 7.95885 30.3269 7.95885 30.0605 8.12442L8.35312 21.614C8.13268 21.751 8 21.9821 8 22.2289C8 22.4758 8.13216 22.7069 8.35312 22.8439L11.6501 24.8927V35.6904C11.6501 35.9422 11.7876 36.1767 12.0149 36.3127L30.199 47.1794C30.3295 47.2572 30.4781 47.2962 30.6271 47.2962C30.7831 47.2962 30.9396 47.2533 31.0738 47.1675L40.561 41.1343V45.3414L37.0266 51.9305C36.904 52.1596 36.9172 52.4321 37.061 52.6499C37.2053 52.8672 37.4612 53.0002 37.7355 53.0002H44.9718C45.2467 53.0002 45.502 52.8672 45.6463 52.6499C45.7901 52.4321 45.8039 52.1596 45.6807 51.9305L42.1463 45.3414V40.1256L48.1605 36.3009C48.3767 36.1634 48.5062 35.9348 48.5062 35.6904V25.417L52.6469 22.8439C52.8673 22.7069 53 22.4758 53 22.2289C53 21.9821 52.8678 21.751 52.6474 21.614ZM39.019 51.522L41.3539 47.169L43.6889 51.522H39.019ZM30.6134 45.6711L13.236 35.2863V25.8782L30.0605 36.3339C30.1937 36.4167 30.347 36.4581 30.5003 36.4581C30.6536 36.4581 30.8069 36.4167 30.9401 36.3339L40.561 30.3549V39.3446L30.6134 45.6711ZM46.9208 35.3001L42.1469 38.3365V29.3694L46.9208 26.4025V35.3001ZM47.4384 24.3044C47.3215 24.3448 47.2185 24.4093 47.1349 24.4931L41.3539 28.0858L30.9401 21.614C30.5748 21.3873 30.0832 21.4795 29.8405 21.819C29.5979 22.1585 29.6962 22.6177 30.0605 22.8439L39.9245 28.9737L30.5003 34.8305L10.2223 22.2289L30.5003 9.6278L50.7782 22.2289L47.4384 24.3044Z" fill="#612848"/>
</svg>
