<svg width="60" height="60" viewBox="0 0 60 60" fill="none" xmlns="http://www.w3.org/2000/svg">
    <path d="M13.6713 28.383C13.8618 28.383 14.0514 28.2951 14.1863 28.1238C14.4347 27.8084 14.4056 27.3293 14.1212 27.0538L9.13373 22.2251C8.84931 21.9496 8.41766 21.9825 8.16879 22.2973C7.92037 22.6127 7.94955 23.0919 8.23397 23.3673L13.2214 28.196C13.3513 28.3214 13.5113 28.383 13.6713 28.383Z" fill="#612848"/>
    <path d="M18.2765 23.5737C18.3941 23.8451 18.6385 24.0033 18.8933 24.0033C18.9926 24.0033 19.0938 23.979 19.1891 23.928C19.5296 23.7465 19.6727 23.2937 19.5086 22.9161L16.6379 16.3003C16.4747 15.9232 16.065 15.765 15.7254 15.946C15.3849 16.1274 15.2418 16.5803 15.4059 16.9578L18.2765 23.5737Z" fill="#612848"/>
    <path d="M52.911 48.8765V18.4667C52.911 18.4576 52.9083 18.449 52.9083 18.4399C52.9069 18.401 52.9024 18.3626 52.896 18.3242C52.8933 18.3075 52.891 18.2908 52.8873 18.2741C52.8778 18.2337 52.8636 18.1943 52.8477 18.1549C52.8431 18.1442 52.8417 18.1326 52.8367 18.122C52.8354 18.119 52.8317 18.1114 52.8299 18.1079C52.8299 18.1073 52.8294 18.1073 52.8294 18.1068C52.829 18.1063 52.8281 18.1038 52.8276 18.1028C52.5965 17.6085 48.868 10 38.8977 10C28.2606 10 25.0549 17.8299 24.9241 18.1635C24.8863 18.259 24.8671 18.3626 24.8671 18.4667V23.4324C18.2206 24.2941 13.4702 31.8794 13.2596 32.221C13.101 32.4788 13.101 32.8184 13.2596 33.0757C13.4702 33.4174 18.2206 41.0026 24.8671 41.8643V49.2419C24.8671 49.6604 25.173 50 25.5508 50H52.3167C52.6941 50 53.0004 49.6604 53.0004 49.2419C52.9995 49.109 52.9657 48.9856 52.911 48.8765ZM49.203 16.3465C50.3877 16.7245 51.2802 18.1968 51.5436 18.6739V48.1269L43.1536 44.4389V23.9216C43.237 23.4 44.0629 18.8048 47.6178 16.5906C48.1538 16.2565 48.6729 16.1767 49.203 16.3465ZM14.6717 32.6491C15.7893 31.0222 20.0857 25.3055 25.4743 24.892C25.4993 24.8951 25.524 24.9006 25.5499 24.9006C25.6037 24.9006 25.6557 24.892 25.7058 24.8789C25.8325 24.8728 25.9592 24.8663 26.0869 24.8663C31.1828 24.8668 35.5084 30.9828 36.5918 32.6491C35.5084 34.3155 31.1828 40.4315 26.0869 40.4315C20.4135 40.4315 15.8312 34.3367 14.6717 32.6491ZM26.2336 41.9417C32.7754 41.8168 37.7869 33.4229 37.9984 33.0626C38.1461 32.8109 38.1461 32.4859 37.9984 32.2342C37.7869 31.8748 32.7754 23.4809 26.2336 23.3556V18.637C26.6926 17.6141 29.8117 11.5162 38.8973 11.5162C43.2593 11.5162 46.3087 13.083 48.3274 14.7656C47.863 14.8206 47.4017 14.9864 46.9482 15.2689C42.5975 17.978 41.824 23.5153 41.793 23.7498C41.788 23.7862 41.7857 23.8226 41.7857 23.859V44.9529C41.7857 45.2638 41.9567 45.5433 42.2174 45.658L48.647 48.4843H26.2336V41.9417Z" fill="#612848"/>
    <path d="M45.1544 30.8633C44.777 30.8633 44.4707 31.2029 44.4707 31.6214V33.8316C44.4707 34.2501 44.777 34.5897 45.1544 34.5897C45.5318 34.5897 45.8381 34.2501 45.8381 33.8316V31.6214C45.8381 31.2029 45.5323 30.8633 45.1544 30.8633Z" fill="#612848"/>
    <path d="M30.3918 32.65C30.3918 29.6023 28.2527 27.1233 25.6237 27.1233C22.9946 27.1233 20.8555 29.6023 20.8555 32.65C20.8555 35.6976 22.9946 38.1772 25.6237 38.1772C28.2527 38.1767 30.3918 35.6976 30.3918 32.65ZM25.6237 36.6605C23.7485 36.6605 22.2229 34.8612 22.2229 32.6495C22.2229 30.4383 23.7485 28.639 25.6237 28.639C27.4988 28.639 29.0244 30.4383 29.0244 32.6495C29.0244 34.8612 27.4988 36.6605 25.6237 36.6605Z" fill="#612848"/>
</svg>
