<svg width="60" height="60" viewBox="0 0 60 60" fill="none" xmlns="http://www.w3.org/2000/svg">
    <path d="M52.8359 27.6376C53.1134 27.2579 53.0306 26.7256 52.6508 26.4481L43.8566 20.0204L43.8197 19.9926C43.3605 19.2037 43.2186 18.4971 43.461 18.1669C43.6858 17.8598 44.3487 17.7685 45.1763 17.9262C45.2625 17.9648 45.3573 17.9892 45.4572 17.9966C46.5895 18.0817 47.4949 17.7452 48.008 17.0477C48.6158 16.2174 48.5676 15.0495 47.8729 13.7589C47.2831 12.6648 46.2683 11.5575 45.0151 10.6416C43.1596 9.28519 41.0958 8.58714 39.6258 8.81471C38.9242 8.92424 38.3629 9.24262 38.0065 9.73182C37.57 10.3243 37.4718 11.1205 37.7181 12.0002C37.7085 12.1722 37.7516 12.3447 37.8441 12.4951C38.3646 13.3378 38.5366 14.1068 38.2806 14.4558C38.0558 14.7634 37.3952 14.8531 36.5744 14.6965L27.6366 8.16434C27.4544 8.03097 27.2268 7.97479 27.0032 8.01054C26.7801 8.04516 26.5797 8.16717 26.4469 8.34935L19.8084 17.4325C19.7397 17.5267 19.6909 17.6334 19.6654 17.7469C19.2959 19.3785 19.6092 20.6991 20.5281 21.3711C21.4487 22.0407 22.7916 21.9386 24.2322 21.0969C24.2333 21.0964 24.2345 21.0964 24.2356 21.0958C24.6897 20.9233 25.0728 20.9023 25.2624 21.043C25.5189 21.2303 25.5978 21.8137 25.4633 22.5294C25.2828 23.4919 24.7436 24.6394 23.9842 25.6774C22.7542 27.3612 21.3579 28.2465 20.5196 28.3771C20.3476 28.4037 20.1109 28.4123 19.9605 28.3022C19.7777 28.1682 19.6824 27.8379 19.6943 27.3868C20.0564 25.7489 19.7482 24.4765 18.8231 23.7995C17.8678 23.1048 16.4607 23.2393 14.9629 24.1661C14.8692 24.224 14.7875 24.2989 14.7228 24.388L8.16372 33.3633C7.88674 33.743 7.96961 34.2753 8.34876 34.5528L17.4347 41.1928C17.529 41.2614 17.6362 41.3103 17.7503 41.3364C19.4065 41.707 20.6938 41.4022 21.3721 40.4743C22.0305 39.5765 21.9471 38.2695 21.1513 36.8598C21.1428 36.8229 21.132 36.7854 21.119 36.7491C20.9583 36.3121 20.9441 35.9546 21.0809 35.7679C21.4811 35.2196 23.5341 35.4506 25.7164 37.0448C27.896 38.6395 28.7371 40.5242 28.3387 41.0691C28.2121 41.241 27.9153 41.3352 27.5089 41.3369C27.4805 41.3267 27.451 41.3188 27.4215 41.312C25.7925 40.9465 24.4706 41.2609 23.7985 42.1786C23.0976 43.1428 23.2276 44.5128 24.1658 46.0371C24.2237 46.1313 24.2992 46.2136 24.3888 46.2783L33.3641 52.836C33.5157 52.9467 33.6911 53 33.8659 53C34.1281 53 34.3869 52.8791 34.5538 52.651L41.0419 43.7773C41.8303 43.3198 42.5364 43.1785 42.8645 43.4192C43.142 43.6223 43.4162 44.473 43.205 45.4963C43.1846 45.5638 43.1715 45.6342 43.1693 45.7063C43.1068 47.087 43.654 47.7873 44.1273 48.1341C45.6973 49.2771 48.4501 47.9911 50.5309 45.1416C52.6168 42.2887 53.0079 39.2734 51.4379 38.1259C50.9804 37.7956 50.1761 37.4903 48.9439 37.9142C48.8849 37.9347 48.8276 37.9613 48.7736 37.9948C47.8382 38.5731 46.9091 38.484 46.5782 38.2434C46.2706 38.0181 46.1792 37.3569 46.3341 36.5335L52.8359 27.6376ZM45.573 39.6185C46.5788 40.3512 48.2123 40.2989 49.5768 39.4976C49.8299 39.4199 50.2142 39.3438 50.4361 39.5033C50.9833 39.9028 50.7511 41.955 49.1556 44.1376C47.5635 46.3158 45.6808 47.1602 45.1308 46.7596C44.9538 46.6296 44.859 46.3067 44.8669 45.8663C45.2007 44.288 44.7954 42.7234 43.8708 42.0463C42.9189 41.3494 41.5108 41.4822 40.0072 42.4129C39.9141 42.4708 39.833 42.5457 39.7683 42.6348L33.6809 50.9603L25.5331 45.0071C25.0773 44.2165 24.9366 43.51 25.1738 43.1836C25.3952 42.8806 26.0377 42.7869 26.8408 42.9328C26.9436 42.9873 27.0588 43.0208 27.1814 43.0293C28.3024 43.1059 29.2031 42.7688 29.7123 42.0775C30.8577 40.5112 29.5721 37.7576 26.7211 35.6714C23.8672 33.5886 20.8516 33.1976 19.7057 34.7645C19.2652 35.3672 19.1704 36.1759 19.4304 37.0647C19.4304 37.2202 19.4741 37.3751 19.5575 37.5102C20.0786 38.3541 20.2522 39.1236 19.998 39.4698C19.7732 39.7768 19.1125 39.8665 18.2912 39.711L10.0407 33.6805L15.9953 25.531C16.7826 25.0753 17.4887 24.9345 17.819 25.1746C18.1363 25.4067 18.222 26.1019 18.0438 26.9594C18.0182 27.0332 18.0023 27.1109 17.9978 27.1904C17.916 28.6058 18.4723 29.3226 18.9536 29.6756C19.4463 30.0359 20.078 30.1693 20.7807 30.0592C22.2502 29.8311 24.0046 28.5366 25.3589 26.6819C26.2761 25.4283 26.9078 24.0656 27.1371 22.8438C27.4079 21.4034 27.0985 20.2757 26.2715 19.6719C25.6392 19.2037 24.7731 19.1231 23.8161 19.4387C23.7026 19.4551 23.5914 19.4943 23.4898 19.5573C22.648 20.0771 21.879 20.2479 21.5322 19.996C21.2245 19.7707 21.1343 19.1106 21.2921 18.2894L27.3199 10.0417L35.7185 16.1794C35.8122 16.2481 35.9194 16.2969 36.0329 16.3224C37.688 16.6975 38.977 16.3905 39.6559 15.4609C40.308 14.5711 40.2354 13.2834 39.4646 11.8918C39.4555 11.8402 39.4419 11.7885 39.4237 11.738C39.258 11.2908 39.2421 10.9276 39.3812 10.738C39.4913 10.5871 39.7183 10.5241 39.8897 10.4974C40.728 10.3674 42.3269 10.7857 44.0121 12.0167C45.0491 12.7743 45.9107 13.7045 46.375 14.5671C46.7207 15.2078 46.8228 15.7872 46.6372 16.0409C46.5033 16.2231 46.1718 16.3162 45.7455 16.3077C45.7336 16.3043 45.7206 16.3014 45.7086 16.2986C44.0501 15.9291 42.7646 16.2367 42.088 17.1629C41.3899 18.1152 41.5232 19.5227 42.4547 21.0243C42.5108 21.1151 42.5835 21.194 42.6692 21.2581L50.96 27.3209L44.8493 35.6782C44.7801 35.7724 44.7313 35.8802 44.7057 35.9949C44.3356 37.6509 44.6433 38.9375 45.573 39.6185Z" fill="#612848"/>
</svg>
