<svg width="60" height="60" viewBox="0 0 60 60" fill="none" xmlns="http://www.w3.org/2000/svg">
    <path d="M30.4108 17.3496C23.5934 17.3496 18.0469 23.1392 18.0469 30.2559C18.0469 34.3531 19.9051 38.1776 23.0403 40.609V49.3266C23.0403 49.7674 23.3826 50.1251 23.8056 50.1251H25.0352C25.4087 52.8759 27.6735 55.0001 30.4108 55.0001C33.1491 55.0001 35.4154 52.8759 35.7894 50.1251H36.8731C37.2955 50.1251 37.6384 49.7674 37.6384 49.3266V40.7208C40.8609 38.2921 42.7782 34.41 42.7782 30.2559C42.7782 23.1392 37.2302 17.3496 30.4108 17.3496ZM30.4108 53.4035C28.5194 53.4035 26.9383 51.9922 26.5822 50.1257H34.243C33.8858 51.9916 32.3037 53.4035 30.4108 53.4035ZM36.1078 48.528H24.5709V40.996H36.1078V48.528ZM32.62 30.9586V39.3989H28.0551V30.9586H32.62ZM36.7792 39.3989H34.1506V30.9586H36.5665C36.9889 30.9586 37.3318 30.6009 37.3318 30.1601C37.3318 29.7188 36.9889 29.3615 36.5665 29.3615H24.1117C23.6888 29.3615 23.3464 29.7188 23.3464 30.1601C23.3464 30.6009 23.6888 30.9586 24.1117 30.9586H26.524V39.3989H24.0464C21.2428 37.2721 19.577 33.8862 19.577 30.2559C19.577 24.0202 24.4367 18.9467 30.4103 18.9467C36.3853 18.9467 41.2471 24.0197 41.2471 30.2559C41.2476 33.8803 39.5818 37.2683 36.7792 39.3989Z" fill="#612848"/>
    <path d="M30.3376 14.6503C30.76 14.6503 31.1029 14.2931 31.1029 13.8518V5.79856C31.1029 5.35722 30.76 5 30.3376 5C29.9146 5 29.5723 5.35722 29.5723 5.79856V13.8518C29.5723 14.2931 29.9146 14.6503 30.3376 14.6503Z" fill="#612848"/>
    <path d="M13.4832 29.3574H5.76531C5.34235 29.3574 5 29.7148 5 30.1562C5 30.5972 5.34235 30.9551 5.76531 30.9551H13.4832C13.9062 30.9551 14.2486 30.5972 14.2486 30.1562C14.2486 29.7153 13.9062 29.3574 13.4832 29.3574Z" fill="#612848"/>
    <path d="M54.2355 29.3574H46.5212C46.0987 29.3574 45.7559 29.7148 45.7559 30.1562C45.7559 30.5972 46.0987 30.9551 46.5212 30.9551H54.2355C54.658 30.9551 55.0009 30.5972 55.0009 30.1562C55.0009 29.7153 54.658 29.3574 54.2355 29.3574Z" fill="#612848"/>
    <path d="M18.157 18.7243C18.3019 18.8569 18.4815 18.9213 18.6601 18.9213C18.8734 18.9213 19.0856 18.8287 19.2366 18.6477C19.5147 18.3155 19.4815 17.8113 19.1632 17.5212L13.3503 12.2262C13.0325 11.9361 12.5483 11.9707 12.2707 12.3029C11.9927 12.6351 12.0258 13.1392 12.3442 13.4294L18.157 18.7243Z" fill="#612848"/>
    <path d="M40.705 18.9221C40.8836 18.9221 41.0627 18.8571 41.2076 18.7251L47.0234 13.4301C47.3418 13.14 47.3745 12.6358 47.0969 12.3031C46.8199 11.9709 46.3357 11.9357 46.0173 12.2264L40.2014 17.5214C39.8831 17.8115 39.8504 18.3157 40.128 18.6484C40.279 18.83 40.4912 18.9221 40.705 18.9221Z" fill="#612848"/>
</svg>
