<svg width="60" height="60" viewBox="0 0 60 60" fill="none" xmlns="http://www.w3.org/2000/svg">
    <path d="M52.2576 10H32.9233C31.4099 10 30.1788 11.3681 30.1788 13.0499V15.613H8.52485C6.58126 15.613 5 17.3702 5 19.5307V37.6166C5 39.7759 6.58126 41.5325 8.52485 41.5325H11.9104V49.117C11.9104 49.4667 12.0958 49.7828 12.3834 49.9246C12.4867 49.9753 12.5959 50 12.7045 50C12.8983 50 13.0901 49.9211 13.239 49.7704L21.3984 41.5325H35.5974C37.5405 41.5325 39.1218 39.7759 39.1218 37.6166V29.016H42.9745L48.7364 34.8327C48.8858 34.9834 49.077 35.0623 49.2709 35.0623C49.3795 35.0623 49.4892 35.0376 49.5925 34.987C49.8801 34.8457 50.0655 34.529 50.0655 34.1793V29.016H52.257C53.7694 29.016 55 27.6474 55 25.9655V13.0499C55.0005 11.3681 53.7705 10 52.2576 10ZM37.5331 37.616C37.5331 38.8016 36.6648 39.7659 35.598 39.7659H21.0917C20.8941 39.7659 20.704 39.8477 20.5572 39.9954L13.4991 47.1214V40.6489C13.4991 40.1609 13.1436 39.7659 12.7045 39.7659H8.52432C7.45691 39.7659 6.58867 38.8016 6.58867 37.616V19.5301C6.58867 18.3439 7.45691 17.3785 8.52432 17.3785H30.9654C30.9681 17.3785 30.9707 17.3791 30.9734 17.3791C30.976 17.3791 30.9787 17.3785 30.9813 17.3785H35.598C36.6654 17.3785 37.5331 18.3439 37.5331 19.5301V37.616ZM53.4113 25.9655C53.4113 26.6737 52.8938 27.25 52.2576 27.25H49.2715C48.8328 27.25 48.4769 27.645 48.4769 28.133V32.1843L43.8163 27.4796C43.6701 27.3324 43.4793 27.25 43.2818 27.25H39.1218V19.5307C39.1218 17.3708 37.5405 15.613 35.5974 15.613H31.768V13.0499C31.768 12.3418 32.2866 11.766 32.9233 11.766H52.2576C52.8938 11.766 53.4113 12.3418 53.4113 13.0499V25.9655Z" fill="#612848"/>
</svg>
