<svg width="121" height="48" viewBox="0 0 121 48" fill="none" xmlns="http://www.w3.org/2000/svg">
<g clip-path="url(#clip0_778_2291)">
<path d="M48.374 23.938C48.374 37.1603 37.6576 47.8784 24.4372 47.8784C11.2169 47.8784 0.5 37.1603 0.5 23.938C0.5 10.7157 11.2165 0 24.4368 0C31.6349 0 38.0934 3.17741 42.4796 8.2095C42.7027 8.46327 42.9206 8.72412 43.1315 8.98969C43.2357 9.11756 43.3376 9.24818 43.4348 9.37841C43.5555 9.53028 43.672 9.68686 43.7833 9.84306C43.8687 9.95676 43.9517 10.0709 44.0323 10.1869C44.1936 10.4147 44.3502 10.6469 44.5016 10.8817C46.9508 14.6355 48.3733 19.1196 48.3733 23.938H48.374Z" fill="#F5F5F3"/>
<path d="M53.8818 8.37012V17.9559C54.6143 17.2343 55.3385 16.6079 56.0549 16.0768C56.7712 15.5461 57.5434 15.1133 58.3715 14.7792C59.1996 14.4448 60.0434 14.2776 60.9029 14.2776C62.2612 14.2776 63.2297 14.6943 63.8084 15.5276C64.3867 16.3613 64.6762 17.6482 64.6762 19.3892V26.6662C64.6762 27.8233 64.793 28.718 65.0267 29.3495C65.26 29.9813 65.8174 30.3394 66.6982 30.4243V30.6793H59.4702V30.4243C60.0327 30.3504 60.4517 30.1324 60.7278 29.7716C61.004 29.4108 61.1763 28.9887 61.2451 28.5055C61.314 28.0224 61.3486 27.3988 61.3486 26.6343V20.8382C61.3486 19.543 61.2105 18.5161 60.9344 17.7568C60.6582 16.9978 59.995 16.6182 58.9443 16.6182C58.2436 16.6182 57.5245 16.833 56.787 17.263C56.049 17.6931 55.4628 18.1947 55.0278 18.7679C54.5286 19.4049 54.2131 20.0553 54.0805 20.7186C53.9475 21.3819 53.8814 22.2231 53.8814 23.2425V26.6343C53.8814 27.4094 53.9157 28.0358 53.9849 28.5134C54.0537 28.991 54.2288 29.4105 54.5105 29.7712C54.7917 30.1324 55.2241 30.35 55.8078 30.424V30.6789H48.6113V30.3921C49.2057 30.3075 49.6436 30.0817 49.9248 29.7154C50.2061 29.3491 50.3811 28.9297 50.4504 28.4575C50.5192 27.9854 50.5538 27.3776 50.5538 26.6343V13.2267C50.5538 12.4308 50.5192 11.7911 50.4504 11.3079C50.3811 10.8252 50.2061 10.4081 49.9248 10.058C49.6436 9.70781 49.2057 9.52722 48.6113 9.5166V9.21404L53.8814 8.37012H53.8818Z" fill="#F5F5F3"/>
<path d="M73.9738 14.5961V26.6661C73.9738 27.8232 74.0852 28.7202 74.3082 29.3572C74.5313 29.9942 75.0726 30.3392 75.9321 30.3923V30.6791H68.688V30.3923C69.5369 30.3077 70.0754 29.9544 70.304 29.3336C70.5322 28.7123 70.6462 27.8236 70.6462 26.6665V19.0389C70.6462 17.8821 70.5322 16.9926 70.304 16.3717C70.0758 15.7509 69.5369 15.398 68.688 15.313V15.0262L73.9738 14.5961ZM70.0892 10.1696C70.0892 9.72379 70.1793 9.31501 70.3599 8.9436C70.54 8.57219 70.7949 8.28026 71.1242 8.0678C71.4531 7.85574 71.8512 7.74951 72.3181 7.74951C72.9231 7.74951 73.4381 7.98321 73.8625 8.45023C74.287 8.91763 74.4994 9.459 74.4994 10.0743C74.4994 10.4674 74.4093 10.8545 74.2288 11.2366C74.0482 11.6186 73.7909 11.9267 73.4565 12.16C73.1222 12.3937 72.7532 12.5105 72.35 12.5105C71.7025 12.5105 71.1639 12.2851 70.734 11.8338C70.304 11.3825 70.0892 10.8282 70.0892 10.1699V10.1696Z" fill="#F5F5F3"/>
<path d="M79.0532 16.3002H76.9038V15.9976C77.7846 15.7855 78.4612 15.2969 78.9337 14.5324C79.4057 13.768 79.6421 12.8977 79.6421 11.9208C79.6421 11.56 79.5784 11.008 79.4509 10.2648L82.3805 8.95898V14.8983H84.9917C85.5011 14.8983 85.9044 14.8665 86.2018 14.8027C86.4988 14.739 86.7907 14.5852 87.0774 14.3408L86.1699 16.6495C85.9472 16.4162 85.4799 16.2994 84.7687 16.2994H82.3805V25.8096C82.3805 26.5414 82.4387 27.1485 82.5555 27.6308C82.6723 28.1132 82.8978 28.4791 83.2321 28.7281C83.5665 28.9776 84.0574 29.1019 84.7049 29.1019C85.9358 29.1019 86.9657 28.5979 87.7938 27.5891L87.9849 27.7024L86.8862 30.3865C85.6125 30.7933 84.2537 30.9967 82.8104 30.9967C81.8128 30.9967 81.0378 30.7949 80.4859 30.3916C79.934 29.9883 79.5568 29.4418 79.3554 28.7513C79.1536 28.0612 79.0528 27.2228 79.0528 26.2353V16.299L79.0532 16.3002Z" fill="#F5F5F3"/>
<path d="M92.968 23.3385C93.1481 24.4531 93.5569 25.4749 94.1937 26.4038C94.8306 27.3327 95.6371 28.0704 96.6138 28.6173C97.5902 29.1642 98.6358 29.4372 99.7503 29.4372C100.376 29.4372 101.069 29.2779 101.828 28.9596C102.587 28.6413 103.21 28.2695 103.699 27.845C104.282 27.3355 104.861 26.5073 105.434 25.3608L105.721 25.4883L104.033 30.8705C103.799 30.7218 103.55 30.6478 103.285 30.6478C103.125 30.6478 102.919 30.6691 102.664 30.7116L99.2412 30.9984C98.1689 30.9984 97.0442 30.8335 95.866 30.5046C94.6878 30.1757 93.5997 29.6686 92.6021 28.984C91.6045 28.2994 90.7977 27.4236 90.1824 26.3566C89.5668 25.2896 89.2588 24.0558 89.2588 22.6543C89.2588 21.0727 89.638 19.6422 90.3972 18.3631C91.1561 17.084 92.191 16.0835 93.5018 15.3616C94.8125 14.64 96.2586 14.2788 97.8404 14.2788C99.6342 14.2788 101.234 14.7832 102.641 15.7916C104.047 16.8004 104.978 18.164 105.435 19.8837L92.9688 23.3393L92.968 23.3385ZM101.613 19.4533C101.273 18.4449 100.756 17.5904 100.061 16.8897C99.3655 16.189 98.5245 15.8388 97.5375 15.8388C96.5505 15.8388 95.6481 16.1201 94.9262 16.6827C94.2044 17.2453 93.6658 18.0019 93.3102 18.9517C92.9546 19.9018 92.7768 20.9079 92.7768 21.969L101.613 19.4529V19.4533Z" fill="#F5F5F3"/>
<path d="M52.7324 42.772C52.6093 42.7228 52.5034 42.6984 52.4149 42.6984L52.1419 42.713L51.7064 42.7571L50.7029 42.8161C49.8863 42.8161 49.1314 42.6512 48.4378 42.3215C47.7443 41.9918 47.1932 41.5134 46.7849 40.8859C46.3765 40.2587 46.1724 39.5269 46.1724 38.6905C46.1724 38.0114 46.3211 37.3953 46.6188 36.8417C46.9162 36.2881 47.3356 35.8542 47.8769 35.539C48.4178 35.2243 49.0279 35.0669 49.7069 35.0669L50.7844 35.1409L51.7509 35.2294C52.0019 35.2294 52.2131 35.1755 52.3854 35.0669L52.8209 37.3917L52.7324 37.4358C52.4767 36.9192 52.1372 36.5159 51.7139 36.2256C51.2906 35.9352 50.8036 35.79 50.2529 35.79C49.7462 35.79 49.3072 35.9329 48.9359 36.2181C48.5645 36.5033 48.2829 36.8787 48.0909 37.3433C47.8989 37.8084 47.8029 38.2943 47.8029 38.801C47.8029 39.6572 48.0614 40.3878 48.5779 40.9929C48.8533 41.3175 49.1864 41.5822 49.5779 41.786C49.9689 41.9902 50.3662 42.0925 50.7694 42.0925C51.3056 42.0925 51.8158 41.9513 52.3004 41.6684C52.7847 41.3855 53.1502 41.0078 53.396 40.5357L53.4995 40.5947L52.732 42.7716L52.7324 42.772Z" fill="#F5F5F3"/>
<path d="M54.2597 38.9935C54.2597 38.2114 54.4442 37.5213 54.8132 36.9232C55.1822 36.3256 55.6849 35.8669 56.3222 35.547C56.9591 35.2271 57.6711 35.0674 58.4582 35.0674C59.0487 35.0674 59.5872 35.15 60.0742 35.3145C60.5612 35.4793 60.9888 35.724 61.3578 36.0486C61.7268 36.3732 62.0136 36.7745 62.2174 37.2514C62.4215 37.7286 62.5238 38.2601 62.5238 38.8456C62.5238 39.4605 62.4192 40.0106 62.2099 40.4949C62.001 40.9796 61.7044 41.3939 61.3209 41.7385C60.9373 42.0828 60.4861 42.3488 59.9672 42.5356C59.448 42.7225 58.8961 42.8162 58.3103 42.8162C57.7246 42.8162 57.1974 42.73 56.7128 42.5577C56.2281 42.3857 55.8001 42.1324 55.4288 41.7976C55.0574 41.4631 54.7695 41.0559 54.5653 40.5763C54.3612 40.0967 54.2593 39.5691 54.2593 38.9935H54.2597ZM55.9787 38.691C55.9787 39.2422 56.0637 39.7784 56.2333 40.2997C56.4028 40.8214 56.6723 41.2507 57.0413 41.5875C57.4103 41.9246 57.8776 42.093 58.4433 42.093C58.9153 42.093 59.3323 41.953 59.6938 41.6724C60.0557 41.3919 60.3311 41.017 60.5203 40.5472C60.7095 40.0774 60.8043 39.5817 60.8043 39.06C60.8043 38.5383 60.7209 38.0048 60.5534 37.5028C60.3858 37.0007 60.1191 36.59 59.7528 36.2701C59.3866 35.9503 58.9252 35.7905 58.3693 35.7905C57.5676 35.7905 56.9685 36.0663 56.5724 36.6171C56.1762 37.1683 55.9784 37.8596 55.9784 38.691H55.9787Z" fill="#F5F5F3"/>
<path d="M64.487 37.2593C64.487 36.7231 64.4366 36.3123 64.3359 36.0271C64.2348 35.7418 64 35.5817 63.631 35.5475V35.4149L65.653 35.2154C65.8843 35.6336 66.0097 36.1624 66.0294 36.8022C67.1557 35.6462 68.1788 35.0679 69.099 35.0679C69.8468 35.0679 70.3558 35.2831 70.6265 35.7135C70.8971 36.1443 71.0324 36.7703 71.0324 37.5918V40.7948C71.0324 41.1591 71.0482 41.453 71.0804 41.6769C71.1123 41.9007 71.1945 42.0951 71.3275 42.2599C71.46 42.4248 71.6642 42.5169 71.94 42.5369V42.6695H68.5825V42.5369C68.9762 42.4976 69.2256 42.3339 69.3315 42.0459C69.4373 41.7579 69.49 41.3413 69.49 40.7952V38.1827C69.49 37.5186 69.4089 37.0142 69.2465 36.67C69.084 36.3257 68.774 36.1534 68.3165 36.1534C68.0954 36.1534 67.87 36.2037 67.6415 36.3044C67.4129 36.4056 67.1962 36.5417 66.992 36.714C66.7879 36.8863 66.6195 37.0681 66.4865 37.2601C66.2847 37.5603 66.1581 37.853 66.1065 38.1383C66.055 38.4235 66.029 38.8146 66.029 39.3115V40.7948C66.029 41.1489 66.0448 41.4369 66.077 41.6584C66.1089 41.8799 66.1903 42.0754 66.3205 42.245C66.4507 42.4146 66.6514 42.5169 66.922 42.5515V42.6695H63.5869V42.5369C63.9854 42.4925 64.2348 42.3276 64.3359 42.0424C64.4366 41.7571 64.487 41.3464 64.487 40.8097V37.2601V37.2593Z" fill="#F5F5F3"/>
<path d="M78.9246 37.6357L78.8133 37.6502C78.7495 37.2764 78.5835 36.9467 78.3156 36.6611C78.0477 36.3759 77.7232 36.1595 77.3424 36.0115C76.9616 35.864 76.5816 35.79 76.2032 35.79C75.977 35.79 75.7535 35.8195 75.5321 35.8786C75.311 35.9376 75.123 36.0387 74.968 36.1811C74.8134 36.3239 74.7359 36.5108 74.7359 36.7422C74.7359 37.0817 74.8972 37.3229 75.2193 37.4653C75.5415 37.6081 76.1233 37.8009 76.9644 38.0444C77.8054 38.288 78.4427 38.5685 78.8754 38.8856C79.3081 39.2031 79.5249 39.6568 79.5249 40.2473C79.5249 40.6604 79.4313 41.0295 79.2444 41.3544C79.0575 41.679 78.8077 41.9474 78.4954 42.159C78.1831 42.3707 77.8314 42.5328 77.4404 42.6461C77.0493 42.7594 76.6567 42.8161 76.2634 42.8161C75.87 42.8161 75.501 42.7838 75.1269 42.7201C74.7532 42.6559 74.3901 42.5812 74.0384 42.495C73.6867 42.4089 73.4814 42.366 73.4224 42.366C73.2894 42.366 73.1639 42.4372 73.0459 42.58L72.9204 39.6131L73.0455 39.5836C73.0994 40.0659 73.2666 40.5011 73.5467 40.8898C73.8264 41.2785 74.1851 41.5763 74.6222 41.7829C75.0592 41.9895 75.5238 42.0929 76.0147 42.0929C76.2996 42.0929 76.5981 42.0402 76.9101 41.9344C77.222 41.8285 77.4785 41.6688 77.6799 41.4548C77.8813 41.2407 77.982 40.9862 77.982 40.6911C77.982 40.3122 77.8101 40.0443 77.4663 39.8865C77.1225 39.7291 76.5332 39.525 75.6981 39.2739C74.8629 39.0229 74.2371 38.7412 73.8193 38.4288C73.4019 38.1164 73.1934 37.6601 73.1934 37.0597C73.1934 36.5974 73.3358 36.2157 73.621 35.9159C73.9062 35.6157 74.2662 35.3994 74.7012 35.2664C75.1363 35.1334 75.5753 35.0669 76.0175 35.0669C76.3715 35.0669 76.691 35.0905 76.9762 35.1369C77.2614 35.1837 77.5588 35.2416 77.8684 35.3104C78.1779 35.3793 78.3723 35.4139 78.451 35.4139C78.5886 35.4139 78.709 35.3746 78.8121 35.2959L78.9234 37.6353L78.9246 37.6357Z" fill="#F5F5F3"/>
<path d="M86.7797 42.6688C86.6117 42.2604 86.5102 41.7461 86.4756 41.1265C86.0869 41.4758 85.7329 41.7662 85.4131 41.9971C85.0933 42.2285 84.7491 42.4229 84.3801 42.5802C84.0111 42.7376 83.6299 42.8163 83.2361 42.8163C82.0308 42.8163 81.4285 42.066 81.4285 40.5654V37.2739C81.4285 36.7428 81.377 36.3281 81.2735 36.0303C81.1701 35.7328 80.9195 35.5715 80.521 35.5467V35.4141L82.971 35.2147V39.7679C82.971 40.4812 83.0457 40.9919 83.1956 41.2992C83.3451 41.6069 83.6385 41.7603 84.0752 41.7603C84.4285 41.7603 84.7845 41.6545 85.1428 41.4428C85.5012 41.2311 85.7833 40.9703 85.9894 40.6606C86.1955 40.3506 86.3281 40.0174 86.3867 39.6605C86.4457 39.3037 86.4752 38.8744 86.4752 38.3728V37.2731C86.4752 36.7321 86.4237 36.3139 86.3202 36.0184C86.2172 35.7234 85.9662 35.5656 85.5677 35.5459V35.4133L88.0177 35.2139V40.8373C88.0177 41.344 88.0727 41.7536 88.1837 42.066C88.2942 42.3784 88.5515 42.5346 88.9547 42.5346V42.6672H86.7797V42.6688Z" fill="#F5F5F3"/>
<path d="M92.2683 32.3295V40.8089C92.2683 41.3452 92.3199 41.761 92.4233 42.0561C92.5268 42.3512 92.7778 42.5113 93.1759 42.5357V42.6683H89.8184V42.5357C90.0937 42.5011 90.2991 42.3992 90.4344 42.2292C90.5697 42.0592 90.6519 41.8676 90.6814 41.6536C90.7109 41.4396 90.7259 41.1579 90.7259 40.8085V34.58C90.7259 34.024 90.6728 33.6035 90.5674 33.3178C90.4615 33.0326 90.2117 32.8799 89.8184 32.8602V32.7202L92.2679 32.3291L92.2683 32.3295Z" fill="#F5F5F3"/>
<path d="M94.622 36.0046H93.626V35.8645C94.0343 35.7662 94.3478 35.5396 94.5669 35.1855C94.7857 34.8314 94.895 34.4277 94.895 33.9752C94.895 33.808 94.8655 33.5523 94.8065 33.2076L96.1645 32.6025V35.3554H97.3745C97.6105 35.3554 97.7974 35.3409 97.9355 35.3114C98.0731 35.2819 98.2085 35.2106 98.3414 35.0973L97.9209 36.1675C97.8174 36.0593 97.6011 36.005 97.2714 36.005H96.1649V40.4127C96.1649 40.7518 96.192 41.0332 96.2459 41.2566C96.3002 41.4801 96.4044 41.6497 96.5594 41.7653C96.7144 41.881 96.9418 41.9385 97.2419 41.9385C97.8123 41.9385 98.2899 41.7048 98.6734 41.2373L98.7619 41.2897L98.2525 42.5337C97.6621 42.7222 97.0326 42.8166 96.3635 42.8166C95.9009 42.8166 95.5417 42.723 95.286 42.5361C95.0303 42.3492 94.8553 42.0958 94.7621 41.776C94.6684 41.4561 94.622 41.0674 94.622 40.6098V36.0046Z" fill="#F5F5F3"/>
<path d="M101.632 35.2151V40.809C101.632 41.3453 101.684 41.7611 101.787 42.0562C101.891 42.3513 102.142 42.5114 102.54 42.5358V42.6684H99.1821V42.5358C99.5755 42.4965 99.8253 42.3328 99.9311 42.0448C100.037 41.7568 100.09 41.3449 100.09 40.8086V37.2736C100.09 36.7373 100.037 36.3254 99.9311 36.0374C99.8253 35.7494 99.5755 35.5861 99.1821 35.5467V35.4142L101.632 35.2147L101.632 35.2151ZM99.8316 33.1633C99.8316 32.9567 99.8733 32.7675 99.9571 32.5952C100.041 32.4232 100.159 32.2879 100.311 32.1895C100.464 32.0912 100.648 32.042 100.865 32.042C101.145 32.042 101.383 32.1502 101.581 32.3666C101.777 32.583 101.876 32.834 101.876 33.1192C101.876 33.3014 101.834 33.4808 101.75 33.6578C101.666 33.8349 101.547 33.9777 101.392 34.0859C101.237 34.1941 101.066 34.2484 100.879 34.2484C100.579 34.2484 100.329 34.1437 100.13 33.9348C99.9311 33.7259 99.8312 33.4686 99.8312 33.1637L99.8316 33.1633Z" fill="#F5F5F3"/>
<path d="M104.377 37.2593C104.377 36.7231 104.327 36.3123 104.226 36.0271C104.125 35.7418 103.89 35.5817 103.521 35.5475V35.4149L105.543 35.2154C105.774 35.6336 105.9 36.1624 105.92 36.8022C107.046 35.6462 108.069 35.0679 108.989 35.0679C109.737 35.0679 110.246 35.2831 110.517 35.7135C110.787 36.1443 110.923 36.7703 110.923 37.5918V40.7948C110.923 41.1591 110.938 41.453 110.971 41.6769C111.002 41.9007 111.085 42.0951 111.218 42.2599C111.35 42.4248 111.554 42.5169 111.83 42.5369V42.6695H108.473V42.5369C108.866 42.4976 109.116 42.3339 109.222 42.0459C109.327 41.7579 109.38 41.3413 109.38 40.7952V38.1827C109.38 37.5186 109.299 37.0142 109.137 36.67C108.974 36.3257 108.664 36.1534 108.207 36.1534C107.986 36.1534 107.76 36.2037 107.532 36.3044C107.303 36.4056 107.086 36.5417 106.882 36.714C106.678 36.8863 106.51 37.0681 106.377 37.2601C106.175 37.5603 106.048 37.853 105.997 38.1383C105.945 38.4235 105.919 38.8146 105.919 39.3115V40.7948C105.919 41.1489 105.935 41.4369 105.967 41.6584C105.999 41.8799 106.08 42.0754 106.211 42.245C106.341 42.4146 106.541 42.5169 106.812 42.5515V42.6695H103.477V42.5369C103.876 42.4925 104.125 42.3276 104.226 42.0424C104.327 41.7571 104.377 41.3464 104.377 40.8097V37.2601V37.2593Z" fill="#F5F5F3"/>
<path d="M120.315 35.2151V35.3552C119.945 35.3749 119.702 35.4858 119.587 35.6873C119.473 35.8891 119.415 36.1767 119.415 36.5509V41.0526C119.415 41.343 119.437 41.5542 119.481 41.6872C119.525 41.8202 119.645 41.985 119.841 42.1818C120.06 42.3934 120.225 42.5925 120.335 42.7794C120.446 42.9663 120.5 43.1976 120.5 43.473C120.5 43.857 120.389 44.2084 120.165 44.5282C119.941 44.8481 119.64 45.1153 119.261 45.3289C118.883 45.5429 118.444 45.7054 117.946 45.816C117.447 45.9265 116.944 45.982 116.438 45.982C115.671 45.982 114.946 45.8683 114.263 45.6413C113.58 45.4139 112.99 45.0511 112.494 44.5522L114.191 42.8526L114.265 42.9403C114.122 43.1854 114.051 43.4062 114.051 43.6029C114.051 44.0982 114.277 44.5031 114.729 44.8174C115.181 45.1314 115.755 45.2884 116.453 45.2884C116.91 45.2884 117.328 45.2211 117.709 45.0861C118.09 44.9512 118.383 44.7647 118.59 44.5267C118.796 44.2886 118.899 44.0152 118.899 43.706C118.899 43.2594 118.763 42.9749 118.49 42.8522C118.217 42.7294 117.825 42.6681 117.314 42.6681C116.872 42.6681 116.472 42.6535 116.113 42.624C115.754 42.5945 115.405 42.5256 115.066 42.4174C114.727 42.3092 114.405 42.1468 114.101 41.9304C113.757 41.6845 113.467 41.3906 113.231 41.0483C112.995 40.7064 112.819 40.3338 112.704 39.9301C112.589 39.5268 112.531 39.1133 112.531 38.6904C112.531 38.1246 112.615 37.6214 112.782 37.1812C112.949 36.7409 113.188 36.377 113.5 36.089C113.812 35.801 114.194 35.5834 114.647 35.4359C115.099 35.2883 115.6 35.2144 116.151 35.2144H120.316L120.315 35.2151ZM117.873 37.0454C117.873 36.5536 117.802 36.2263 117.659 36.0638C117.448 35.9013 117.116 35.8203 116.665 35.8203C116.12 35.8203 115.66 35.9521 115.284 36.2149C114.909 36.4781 114.628 36.8286 114.441 37.2665C114.255 37.7044 114.162 38.1892 114.162 38.7203C114.162 39.3647 114.302 39.9344 114.581 40.4286C114.861 40.9232 115.23 41.2993 115.69 41.5578C116.149 41.8163 116.638 41.9453 117.158 41.9453L117.873 41.9012V37.0454Z" fill="#F5F5F3"/>
<path d="M19.5305 19.7073L19.5233 19.7144C19.5209 19.7097 19.5186 19.7025 19.5186 19.6953L19.5305 19.7073Z" fill="#612848"/>
<path d="M8.06981 20.6753C8.07532 20.4652 8.04503 20.2449 8.23857 20.0891L8.22559 20.0769C8.3141 20.6363 8.914 20.7996 9.23304 20.9617C9.74758 21.2237 9.77275 21.6313 9.95961 22.0039C10.0564 22.1971 10.0312 22.4713 10.1606 22.6256C10.9041 23.5112 11.1464 24.6235 11.5764 25.6491C11.8608 26.3282 12.5162 26.6599 12.9709 27.2276C13.2424 26.9432 12.9859 26.7362 12.8797 26.5261C12.3427 25.4642 11.7479 24.4283 11.4572 23.2586C11.4344 23.1662 11.2141 23.1071 11.3994 22.9848C11.5229 22.9033 11.65 22.982 11.7172 23.0835C11.8919 23.3471 12.1138 23.6048 12.1972 23.8987C12.5422 25.1149 13.5221 25.96 14.0146 27.0915C14.2648 27.6663 14.6778 28.1687 14.9721 28.7274C15.1636 29.0913 15.437 29.1736 15.6078 28.8407C16.1223 27.8371 17.046 27.1084 17.4397 26.0269C17.5452 25.7373 17.7552 25.4733 17.961 25.2353C18.4747 24.6404 18.8945 23.9829 19.3457 23.3436C20.2721 22.0307 21.2461 20.7445 22.2862 19.5202C23.6331 17.935 24.7869 16.2082 26.0772 14.5841C26.7007 13.7988 27.1464 12.858 27.8431 12.1715C28.4253 11.5979 28.6318 10.8916 29.05 10.2948C29.3895 9.81008 29.8395 9.27893 30.3859 8.91933C30.4465 8.87959 30.5495 8.81271 30.581 8.83435C31.3198 9.33952 31.3701 8.54399 31.6428 8.24852C32.1986 7.64577 32.7757 7.07253 33.4421 6.59411C33.5518 6.51542 33.7096 6.40722 33.8414 6.53509C33.9696 6.65942 33.8791 6.80578 33.7993 6.93207C33.3701 7.61272 32.9464 8.29848 32.4138 8.90517C32.1211 9.23841 31.9165 9.60155 31.8512 10.1693C32.339 9.81519 32.6825 9.41821 33.2832 9.371C32.793 10.1532 32.2737 10.8814 31.9437 11.8209C32.8489 11.3201 32.8504 10.0591 33.9834 9.88247C33.9464 10.425 33.6789 10.8834 33.4212 11.324C32.5188 12.8675 31.5928 14.3976 30.6648 15.9257C29.2443 18.2639 27.6912 20.5108 26.1181 22.7507C23.2433 26.8436 20.7406 31.1742 18.2961 35.5359C17.5778 36.8177 16.845 38.0917 16.1349 39.3778C15.902 39.8 15.727 39.8472 15.4284 39.4235C12.454 35.1991 9.31132 31.0904 6.75316 26.5816C6.17686 25.5657 5.75712 24.4621 5.07972 23.4947C8.48168 28.6523 12.0508 33.6891 15.7337 38.7975C17.5869 35.6921 19.2292 32.4671 21.1159 29.3778C20.7929 29.4391 20.6985 29.6921 20.5667 29.9022C19.016 32.3734 17.6152 34.9316 16.1656 37.4614C15.7238 38.2325 15.7199 38.24 15.177 37.4932C12.5831 33.9244 10.017 30.3362 7.78343 26.5257C6.89045 25.0027 5.85665 23.5415 5.21229 21.9024C4.8555 20.9944 4.457 20.0954 4.11279 19.1676C5.03055 20.1992 5.6281 21.4551 6.64066 22.5461C6.78818 21.9485 6.35152 21.6959 6.27127 21.3705C8.79481 24.0778 10.7924 27.2375 12.8431 30.357C12.9324 30.2968 13.0217 30.2367 13.1114 30.1765C12.6602 29.4148 12.1979 28.659 11.7601 27.8898C11.113 26.7531 10.4985 25.598 9.84042 24.468C9.34908 23.6249 8.8011 22.8172 8.31961 21.9646C8.05919 21.5031 8.35894 21.0392 8.05997 20.656L8.0706 20.6741L8.06981 20.6753Z" fill="#1F2023"/>
<path d="M44.292 10.5491C43.9812 10.9878 43.7586 11.5284 43.2369 11.8176C43.4478 11.2176 43.7377 10.6978 44.0461 10.2001C43.9348 10.0435 43.8325 9.87829 43.7118 9.72642C43.5339 9.85665 43.3436 10.0199 43.1445 10.1647C43.1823 9.83737 43.2873 9.55882 43.4108 9.33377C43.2039 9.05443 42.984 8.78453 42.7613 8.53076C42.6048 8.84394 42.4073 9.19253 41.8762 8.82978C41.8432 8.80853 41.7409 8.87502 41.6796 8.91515C41.1343 9.27318 40.6839 9.80432 40.3448 10.2906C39.9251 10.8882 39.7189 11.5925 39.1379 12.1661C38.4408 12.8539 37.9951 13.7954 37.3716 14.5803C36.0817 16.2048 34.9272 17.9308 33.5806 19.5148C32.5397 20.7408 31.5653 22.0261 30.6405 23.3398C30.1901 23.9776 29.768 24.637 29.2558 25.2299C29.0497 25.4695 28.8408 25.7327 28.7342 26.0219C28.3408 27.1031 27.416 27.8337 26.9014 28.8365C26.7307 29.1686 26.4581 29.088 26.2661 28.7228C25.9723 28.1657 25.5596 27.6629 25.3082 27.0865C24.8173 25.9554 23.8358 25.1111 23.492 23.895C23.409 23.6011 23.1863 23.3426 23.0109 23.0794C22.9444 22.9775 22.8166 22.8992 22.693 22.9798C22.5081 23.103 22.7284 23.1624 22.7524 23.2548C23.0416 24.4237 23.6368 25.4601 24.1749 26.5223C24.2791 26.7309 24.5376 26.9398 24.265 27.2242C23.8098 26.6549 23.1553 26.3233 22.8708 25.645C22.4417 24.6181 22.1974 23.5062 21.4555 22.6214C21.3252 22.4672 21.3512 22.1921 21.254 22.0001C21.0668 21.6256 21.0432 21.22 20.5287 20.9567C20.2132 20.7978 19.6231 20.6365 19.5259 20.0912C19.341 20.2454 19.3694 20.4634 19.3646 20.6699C19.6443 21.0492 19.3576 21.5072 19.6136 21.9624C20.0948 22.8138 20.6427 23.6223 21.1356 24.4643C21.7926 25.5954 22.4066 26.7501 23.0538 27.886C23.4924 28.6567 23.9546 29.4106 24.405 30.1742C24.3149 30.2336 24.2272 30.2927 24.1371 30.3544C22.0864 27.2337 20.09 24.0751 17.5649 21.3671C17.6456 21.6921 18.0818 21.9459 17.9347 22.5431C16.9221 21.4501 16.325 20.1954 15.4072 19.1638C15.751 20.0912 16.1491 20.9898 16.5075 21.8979C17.1499 23.5365 18.1861 24.9993 19.0775 26.5219C21.3111 30.3328 23.8787 33.9206 26.4722 37.4891C27.0151 38.2362 27.0175 38.2287 27.4608 37.4584C28.9096 34.9282 30.3108 32.3696 31.8612 29.8988C31.9914 29.6879 32.0866 29.4342 32.4087 29.3724C30.5237 32.4621 28.8809 35.6871 27.0269 38.7937C23.409 33.7738 19.9 28.8224 16.5496 23.7549C17.1283 24.6559 17.524 25.6544 18.048 26.5766C20.6061 31.087 23.7477 35.1937 26.7232 39.4197C27.0218 39.8442 27.1949 39.7966 27.4297 39.3744C28.1386 38.0867 28.8711 36.8135 29.5898 35.5305C32.0342 31.1696 34.5381 26.8398 37.4114 22.7469C38.9857 20.5059 40.5387 18.2605 41.9589 15.9223C42.886 14.393 43.8129 12.8633 44.7164 11.3195C44.7306 11.2935 44.7448 11.2695 44.7617 11.2435L44.2924 10.5487L44.292 10.5491Z" fill="#1F2023"/>
</g>
<defs>
<clipPath id="clip0_778_2291">
<rect width="120" height="47.8788" fill="white" transform="translate(0.5)"/>
</clipPath>
</defs>
</svg>
