<svg width="93" height="37" viewBox="0 0 93 37" fill="none" xmlns="http://www.w3.org/2000/svg">
<g clip-path="url(#clip0_776_12950)">
<path d="M36.9963 18.4989C36.9963 28.7169 28.7148 36.9997 18.4983 36.9997C8.28183 36.9997 0 28.7169 0 18.4989C0 8.28094 8.28153 0 18.498 0C24.0606 0 29.0516 2.45546 32.4412 6.34418C32.6136 6.54029 32.782 6.74187 32.9449 6.9471C33.0255 7.04591 33.1042 7.14685 33.1793 7.24749C33.2727 7.36485 33.3626 7.48586 33.4487 7.60657C33.5146 7.69444 33.5788 7.78261 33.6411 7.8723C33.7657 8.04834 33.8867 8.22773 34.0038 8.40924C35.8965 11.3101 36.9957 14.7753 36.9957 18.4989H36.9963Z" fill="#612848"/>
<path d="M41.2527 6.46826V13.876C41.8187 13.3184 42.3784 12.8343 42.9319 12.4239C43.4855 12.0137 44.0823 11.6793 44.7222 11.4211C45.3621 11.1627 46.0142 11.0335 46.6784 11.0335C47.7281 11.0335 48.4766 11.3555 48.9238 11.9994C49.3706 12.6437 49.5944 13.6382 49.5944 14.9836V20.6072C49.5944 21.5014 49.6847 22.1928 49.8652 22.6808C50.0455 23.1691 50.4763 23.4458 51.1569 23.5114V23.7085H45.5713V23.5114C46.006 23.4543 46.3297 23.2858 46.5431 23.007C46.7566 22.7282 46.8897 22.402 46.9429 22.0286C46.9961 21.6552 47.0229 21.1733 47.0229 20.5826V16.1034C47.0229 15.1025 46.9162 14.3089 46.7027 13.7221C46.4893 13.1356 45.9768 12.8422 45.1648 12.8422C44.6234 12.8422 44.0677 13.0082 43.4977 13.3406C42.9274 13.6729 42.4744 14.0605 42.1382 14.5035C41.7524 14.9958 41.5086 15.4984 41.4062 16.011C41.3034 16.5236 41.2524 17.1736 41.2524 17.9614V20.5826C41.2524 21.1815 41.2788 21.6656 41.3323 22.0347C41.3855 22.4038 41.5208 22.7279 41.7384 23.0067C41.9558 23.2858 42.2899 23.454 42.741 23.5111V23.7082H37.1797V23.4865C37.639 23.4211 37.9774 23.2466 38.1947 22.9635C38.4121 22.6805 38.5474 22.3564 38.6009 21.9915C38.6541 21.6267 38.6808 21.1569 38.6808 20.5826V10.2214C38.6808 9.6063 38.6541 9.11192 38.6009 8.73856C38.5474 8.36549 38.4121 8.04321 38.1947 7.77261C37.9774 7.50201 37.639 7.36245 37.1797 7.35425V7.12044L41.2524 6.46826H41.2527Z" fill="black"/>
<path d="M56.7797 11.2797V20.6072C56.7797 21.5014 56.8657 22.1946 57.0381 22.6869C57.2104 23.1791 57.6287 23.4457 58.293 23.4868V23.7084H52.6948V23.4868C53.3509 23.4214 53.767 23.1484 53.9436 22.6686C54.12 22.1885 54.2081 21.5017 54.2081 20.6075V14.713C54.2081 13.8191 54.12 13.1317 53.9436 12.6519C53.7673 12.1721 53.3509 11.8994 52.6948 11.8337V11.6121L56.7797 11.2797ZM53.7777 7.85894C53.7777 7.51446 53.8473 7.19856 53.9868 6.91154C54.1261 6.62453 54.323 6.39892 54.5775 6.23474C54.8316 6.07086 55.1393 5.98877 55.5001 5.98877C55.9677 5.98877 56.3656 6.16937 56.6936 6.53027C57.0216 6.89148 57.1858 7.30984 57.1858 7.78536C57.1858 8.0891 57.1162 8.38828 56.9766 8.68351C56.8371 8.97874 56.6383 9.2168 56.3799 9.3971C56.1215 9.5777 55.8363 9.668 55.5247 9.668C55.0244 9.668 54.6082 9.49379 54.2759 9.14505C53.9437 8.79631 53.7777 8.36791 53.7777 7.85925V7.85894Z" fill="black"/>
<path d="M60.7045 12.5965H59.0435V12.3627C59.7241 12.1988 60.247 11.8212 60.6121 11.2304C60.9769 10.6397 61.1596 9.96712 61.1596 9.21218C61.1596 8.93337 61.1103 8.5068 61.0118 7.93246L63.2757 6.92334V11.5132H65.2937C65.6873 11.5132 65.9989 11.4886 66.2288 11.4393C66.4583 11.39 66.6839 11.2712 66.9055 11.0824L66.2041 12.8665C66.0321 12.6862 65.6709 12.5959 65.1213 12.5959H63.2757V19.9452C63.2757 20.5108 63.3207 20.9799 63.411 21.3526C63.5013 21.7254 63.6755 22.0082 63.9339 22.2006C64.1923 22.3934 64.5717 22.4895 65.0721 22.4895C66.0233 22.4895 66.8191 22.1 67.4591 21.3204L67.6068 21.408L66.7577 23.4822C65.7734 23.7966 64.7234 23.9537 63.608 23.9537C62.8371 23.9537 62.2382 23.7978 61.8117 23.4861C61.3852 23.1745 61.0936 22.7522 60.938 22.2186C60.782 21.6853 60.7042 21.0374 60.7042 20.2742V12.5956L60.7045 12.5965Z" fill="black"/>
<path d="M71.4577 18.0354C71.5969 18.8968 71.9128 19.6864 72.405 20.4042C72.8971 21.122 73.5203 21.6921 74.2752 22.1147C75.0297 22.5374 75.8377 22.7484 76.6989 22.7484C77.1826 22.7484 77.718 22.6252 78.3044 22.3793C78.8908 22.1333 79.3726 21.846 79.7502 21.5179C80.201 21.1242 80.6485 20.4842 81.0911 19.5982L81.3127 19.6967L80.0086 23.856C79.828 23.7411 79.6353 23.6839 79.4304 23.6839C79.3073 23.6839 79.1474 23.7003 78.9507 23.7332L76.3056 23.9548C75.4769 23.9548 74.6077 23.8274 73.6973 23.5732C72.7868 23.3191 71.9459 22.9272 71.175 22.3981C70.4041 21.8691 69.7806 21.1923 69.3051 20.3677C68.8293 19.5431 68.5913 18.5897 68.5913 17.5067C68.5913 16.2844 68.8844 15.1789 69.4711 14.1905C70.0575 13.202 70.8573 12.4288 71.8702 11.8709C72.8832 11.3133 74.0007 11.0342 75.223 11.0342C76.6093 11.0342 77.8456 11.424 78.9327 12.2032C80.0195 12.9828 80.7391 14.0366 81.092 15.3656L71.4583 18.036L71.4577 18.0354ZM78.1387 15.033C77.876 14.2537 77.476 13.5933 76.9391 13.0518C76.4016 12.5103 75.7517 12.2397 74.989 12.2397C74.2262 12.2397 73.5288 12.4571 72.971 12.8919C72.4132 13.3267 71.997 13.9113 71.7222 14.6453C71.4474 15.3796 71.31 16.157 71.31 16.977L78.1387 15.0327V15.033Z" fill="black"/>
<path d="M40.3644 33.0535C40.2693 33.0155 40.1875 32.9967 40.1191 32.9967L39.9081 33.0079L39.5716 33.042L38.7961 33.0876C38.165 33.0876 37.5816 32.9602 37.0456 32.7054C36.5097 32.4506 36.0838 32.0809 35.7682 31.5959C35.4527 31.1113 35.2949 30.5458 35.2949 29.8994C35.2949 29.3746 35.4098 28.8985 35.64 28.4707C35.8698 28.0429 36.1938 27.7075 36.6121 27.464C37.0301 27.2207 37.5016 27.0991 38.0264 27.0991L38.859 27.1563L39.6059 27.2247C39.7999 27.2247 39.9631 27.183 40.0963 27.0991L40.4328 28.8957L40.3644 28.9298C40.1668 28.5306 39.9045 28.2189 39.5774 27.9945C39.2502 27.7701 38.8739 27.658 38.4483 27.658C38.0568 27.658 37.7175 27.7683 37.4305 27.9888C37.1435 28.2092 36.9259 28.4992 36.7775 28.8583C36.6292 29.2177 36.555 29.5932 36.555 29.9848C36.555 30.6464 36.7547 31.211 37.1539 31.6786C37.3667 31.9295 37.6242 32.1341 37.9266 32.2916C38.2288 32.4494 38.5359 32.5284 38.8475 32.5284C39.2618 32.5284 39.6561 32.4193 40.0306 32.2007C40.4048 31.9821 40.6873 31.6902 40.8773 31.3253L40.9572 31.3709L40.3641 33.0532L40.3644 33.0535Z" fill="black"/>
<path d="M41.5447 30.1337C41.5447 29.5292 41.6873 28.9959 41.9725 28.5338C42.2576 28.0719 42.6461 27.7174 43.1386 27.4702C43.6308 27.2231 44.181 27.0996 44.7893 27.0996C45.2456 27.0996 45.6618 27.1635 46.0381 27.2905C46.4145 27.4179 46.7449 27.6071 47.0301 27.8579C47.3152 28.1087 47.5369 28.4189 47.6943 28.7874C47.8521 29.1562 47.9311 29.5669 47.9311 30.0193C47.9311 30.4946 47.8503 30.9196 47.6886 31.2939C47.5271 31.6685 47.2979 31.9886 47.0015 32.255C46.7051 32.521 46.3564 32.7265 45.9555 32.871C45.5542 33.0154 45.1277 33.0877 44.675 33.0877C44.2224 33.0877 43.815 33.0212 43.4405 32.888C43.0659 32.7551 42.7352 32.5593 42.4482 32.3006C42.1612 32.0421 41.9387 31.7275 41.7809 31.3568C41.6232 30.9862 41.5444 30.5785 41.5444 30.1337H41.5447ZM42.8732 29.8999C42.8732 30.3258 42.9389 30.7402 43.0699 31.1431C43.2009 31.5462 43.4092 31.878 43.6943 32.1382C43.9795 32.3988 44.3406 32.5289 44.7778 32.5289C45.1426 32.5289 45.4648 32.4207 45.7442 32.2039C46.0239 31.9871 46.2367 31.6974 46.3829 31.3343C46.5291 30.9713 46.6024 30.5882 46.6024 30.185C46.6024 29.7819 46.5379 29.3696 46.4084 28.9816C46.2789 28.5937 46.0728 28.2763 45.7898 28.0291C45.5068 27.7819 45.1502 27.6584 44.7206 27.6584C44.1011 27.6584 43.6381 27.8716 43.3319 28.2972C43.0258 28.7232 42.8729 29.2574 42.8729 29.8999H42.8732Z" fill="black"/>
<path d="M49.448 28.7936C49.448 28.3792 49.4091 28.0618 49.3313 27.8414C49.2531 27.6209 49.0716 27.4972 48.7865 27.4707V27.3683L50.349 27.2141C50.5278 27.5373 50.6248 27.9459 50.64 28.4403C51.5103 27.547 52.301 27.1001 53.0121 27.1001C53.59 27.1001 53.9833 27.2664 54.1925 27.599C54.4016 27.932 54.5062 28.4157 54.5062 29.0505V31.5258C54.5062 31.8073 54.5184 32.0344 54.5433 32.2074C54.5679 32.3804 54.6315 32.5306 54.7342 32.658C54.8367 32.7854 54.9944 32.8566 55.2076 32.8721V32.9745H52.6129V32.8721C52.9172 32.8417 53.11 32.7152 53.1917 32.4926C53.2735 32.2701 53.3142 31.9481 53.3142 31.5261V29.5072C53.3142 28.994 53.2516 28.6042 53.1261 28.3382C53.0005 28.0721 52.761 27.939 52.4074 27.939C52.2366 27.939 52.0624 27.9779 51.8858 28.0557C51.7091 28.1338 51.5416 28.239 51.3839 28.3722C51.2261 28.5054 51.096 28.6459 50.9932 28.7942C50.8373 29.0262 50.7394 29.2524 50.6996 29.4729C50.6597 29.6933 50.6397 29.9955 50.6397 30.3795V31.5258C50.6397 31.7994 50.6518 32.022 50.6768 32.1931C50.7014 32.3643 50.7643 32.5154 50.8649 32.6465C50.9656 32.7775 51.1206 32.8566 51.3297 32.8833V32.9745H48.7524V32.8721C49.0604 32.8377 49.2531 32.7103 49.3313 32.4899C49.4091 32.2694 49.448 31.952 49.448 31.5373V28.7942V28.7936Z" fill="black"/>
<path d="M60.6053 29.0842L60.5192 29.0955C60.47 28.8066 60.3417 28.5518 60.1347 28.3311C59.9276 28.1107 59.6769 27.9435 59.3826 27.8291C59.0883 27.7151 58.7946 27.658 58.5022 27.658C58.3274 27.658 58.1547 27.6808 57.9836 27.7264C57.8127 27.772 57.6674 27.8501 57.5476 27.9602C57.4282 28.0705 57.3683 28.215 57.3683 28.3937C57.3683 28.6561 57.4929 28.8425 57.7419 28.9526C57.9909 29.0629 58.4405 29.2119 59.0904 29.4001C59.7404 29.5883 60.2329 29.8051 60.5673 30.0502C60.9017 30.2955 61.0692 30.6461 61.0692 31.1025C61.0692 31.4217 60.9968 31.7069 60.8524 31.958C60.708 32.2089 60.515 32.4162 60.2736 32.5798C60.0322 32.7434 59.7605 32.8687 59.4583 32.9562C59.1561 33.0438 58.8527 33.0876 58.5487 33.0876C58.2447 33.0876 57.9596 33.0626 57.6705 33.0134C57.3817 32.9638 57.1011 32.9061 56.8293 32.8395C56.5575 32.7729 56.3988 32.7397 56.3532 32.7397C56.2505 32.7397 56.1535 32.7948 56.0623 32.9051L55.9653 30.6123L56.062 30.5895C56.1037 30.9623 56.2329 31.2986 56.4493 31.599C56.6654 31.8994 56.9427 32.1295 57.2804 32.2891C57.6182 32.4488 57.9772 32.5287 58.3566 32.5287C58.5767 32.5287 58.8074 32.488 59.0485 32.4062C59.2896 32.3244 59.4878 32.201 59.6434 32.0356C59.7991 31.8702 59.8769 31.6735 59.8769 31.4454C59.8769 31.1526 59.744 30.9456 59.4783 30.8237C59.2126 30.702 58.7573 30.5442 58.1119 30.3503C57.4665 30.1563 56.9828 29.9386 56.66 29.6972C56.3374 29.4558 56.1763 29.1031 56.1763 28.6391C56.1763 28.2819 56.2864 27.9869 56.5068 27.7552C56.7272 27.5233 57.0053 27.356 57.3415 27.2533C57.6778 27.1505 58.017 27.0991 58.3587 27.0991C58.6323 27.0991 58.8792 27.1174 59.0996 27.1532C59.32 27.1894 59.5498 27.2341 59.789 27.2873C60.0283 27.3405 60.1785 27.3673 60.2393 27.3673C60.3456 27.3673 60.4387 27.3369 60.5183 27.2761L60.6043 29.0839L60.6053 29.0842Z" fill="black"/>
<path d="M66.6755 32.9739C66.5457 32.6583 66.4672 32.2609 66.4405 31.7821C66.1401 32.0521 65.8665 32.2764 65.6194 32.4549C65.3722 32.6337 65.1062 32.7839 64.8211 32.9055C64.5359 33.0271 64.2414 33.0879 63.9371 33.0879C63.0056 33.0879 62.5402 32.5081 62.5402 31.3485V28.8049C62.5402 28.3944 62.5004 28.0739 62.4204 27.8438C62.3405 27.6139 62.1468 27.4893 61.8389 27.4701V27.3676L63.7322 27.2135V30.7322C63.7322 31.2834 63.7899 31.6781 63.9058 31.9155C64.0213 32.1533 64.2481 32.2719 64.5855 32.2719C64.8585 32.2719 65.1336 32.1901 65.4105 32.0265C65.6875 31.8629 65.9055 31.6614 66.0648 31.4221C66.224 31.1825 66.3265 30.925 66.3718 30.6492C66.4174 30.3734 66.4402 30.0417 66.4402 29.6541V28.8043C66.4402 28.3862 66.4004 28.063 66.3204 27.8347C66.2408 27.6066 66.0468 27.4847 65.7389 27.4695V27.367L67.6322 27.2129V31.5586C67.6322 31.9502 67.6747 32.2667 67.7605 32.5081C67.8459 32.7495 68.0447 32.8702 68.3563 32.8702V32.9727H66.6755V32.9739Z" fill="black"/>
<path d="M70.9172 24.9837V31.5365C70.9172 31.9509 70.9571 32.2722 71.037 32.5003C71.117 32.7283 71.3109 32.8521 71.6186 32.8709V32.9734H69.0239V32.8709C69.2367 32.8441 69.3954 32.7654 69.5 32.634C69.6046 32.5027 69.6681 32.3546 69.6909 32.1892C69.7137 32.0238 69.7253 31.8061 69.7253 31.5361V26.7228C69.7253 26.2932 69.6842 25.9682 69.6027 25.7475C69.521 25.527 69.3279 25.4091 69.0239 25.3939V25.2856L70.9169 24.9834L70.9172 24.9837Z" fill="black"/>
<path d="M72.736 27.8239H71.9663V27.7157C72.2819 27.6396 72.5241 27.4645 72.6935 27.1909C72.8625 26.9172 72.947 26.6053 72.947 26.2556C72.947 26.1264 72.9242 25.9288 72.8786 25.6624L73.928 25.1948V27.3222H74.8631C75.0455 27.3222 75.1899 27.311 75.2966 27.2882C75.403 27.2654 75.5076 27.2103 75.6103 27.1228L75.2854 27.9498C75.2054 27.8662 75.0382 27.8242 74.7835 27.8242H73.9283V31.2304C73.9283 31.4925 73.9493 31.7099 73.9909 31.8826C74.0329 32.0553 74.1134 32.1863 74.2332 32.2757C74.353 32.3651 74.5287 32.4095 74.7607 32.4095C75.2015 32.4095 75.5705 32.2289 75.8669 31.8677L75.9353 31.9081L75.5416 32.8695C75.0853 33.0151 74.5989 33.0881 74.0818 33.0881C73.7243 33.0881 73.4468 33.0157 73.2492 32.8713C73.0516 32.7269 72.9163 32.5311 72.8443 32.2839C72.7719 32.0367 72.736 31.7363 72.736 31.3827V27.8239Z" fill="black"/>
<path d="M78.1531 27.2138V31.5367C78.1531 31.9511 78.1929 32.2725 78.2728 32.5005C78.3528 32.7286 78.5467 32.8523 78.8544 32.8712V32.9736H76.2598V32.8712C76.5638 32.8408 76.7568 32.7143 76.8386 32.4917C76.9204 32.2692 76.9611 31.9508 76.9611 31.5364V28.8046C76.9611 28.3902 76.9201 28.0718 76.8386 27.8493C76.7568 27.6267 76.5638 27.5005 76.2598 27.4701V27.3677L78.1528 27.2135L78.1531 27.2138ZM76.7617 25.6282C76.7617 25.4686 76.7939 25.3224 76.8586 25.1892C76.9234 25.0563 77.0146 24.9517 77.1322 24.8757C77.2502 24.7997 77.3925 24.7617 77.56 24.7617C77.7767 24.7617 77.9609 24.8453 78.1132 25.0126C78.2652 25.1798 78.3412 25.3738 78.3412 25.5942C78.3412 25.735 78.3087 25.8736 78.2443 26.0104C78.1795 26.1472 78.0874 26.2576 77.9676 26.3412C77.8478 26.4248 77.7159 26.4668 77.5712 26.4668C77.3393 26.4668 77.1462 26.3859 76.9924 26.2245C76.8386 26.063 76.7614 25.8642 76.7614 25.6285L76.7617 25.6282Z" fill="black"/>
<path d="M80.2747 28.7936C80.2747 28.3792 80.2357 28.0618 80.1579 27.8414C80.0798 27.6209 79.8983 27.4972 79.6132 27.4707V27.3683L81.1757 27.2141C81.3545 27.5373 81.4514 27.9459 81.4666 28.4403C82.337 27.547 83.1277 27.1001 83.8387 27.1001C84.4166 27.1001 84.81 27.2664 85.0192 27.599C85.2283 27.932 85.3329 28.4157 85.3329 29.0505V31.5258C85.3329 31.8073 85.345 32.0344 85.37 32.2074C85.3946 32.3804 85.4581 32.5306 85.5609 32.658C85.6633 32.7854 85.8211 32.8566 86.0342 32.8721V32.9745H83.4396V32.8721C83.7439 32.8417 83.9366 32.7152 84.0184 32.4926C84.1002 32.2701 84.1409 31.9481 84.1409 31.5261V29.5072C84.1409 28.994 84.0783 28.6042 83.9527 28.3382C83.8272 28.0721 83.5876 27.939 83.2341 27.939C83.0632 27.939 82.889 27.9779 82.7124 28.0557C82.5358 28.1338 82.3683 28.239 82.2105 28.3722C82.0527 28.5054 81.9226 28.6459 81.8199 28.7942C81.6639 29.0262 81.566 29.2524 81.5262 29.4729C81.4864 29.6933 81.4663 29.9955 81.4663 30.3795V31.5258C81.4663 31.7994 81.4785 32.022 81.5034 32.1931C81.528 32.3643 81.591 32.5154 81.6916 32.6465C81.7922 32.7775 81.9473 32.8566 82.1564 32.8833V32.9745H79.5791V32.8721C79.8871 32.8377 80.0798 32.7103 80.1579 32.4899C80.2357 32.2694 80.2747 31.952 80.2747 31.5373V28.7942V28.7936Z" fill="black"/>
<path d="M92.5915 27.2135V27.3217C92.3051 27.3369 92.1172 27.4227 92.0288 27.5784C91.9403 27.7343 91.8959 27.9566 91.8959 28.2457V31.7246C91.8959 31.949 91.9129 32.1123 91.947 32.215C91.981 32.3178 92.0735 32.4452 92.2245 32.5972C92.3945 32.7608 92.5219 32.9146 92.607 33.059C92.6921 33.2035 92.7343 33.3822 92.7343 33.5951C92.7343 33.8918 92.648 34.1633 92.475 34.4105C92.3021 34.6577 92.0695 34.8642 91.7771 35.0292C91.4846 35.1946 91.1456 35.3202 90.7602 35.4057C90.3747 35.4911 89.9862 35.534 89.5953 35.534C89.0028 35.534 88.4425 35.4461 87.9144 35.2707C87.3864 35.0949 86.9307 34.8146 86.5474 34.4291L87.8588 33.1156L87.916 33.1834C87.8056 33.3728 87.7506 33.5434 87.7506 33.6954C87.7506 34.0782 87.9251 34.3911 88.2744 34.634C88.6237 34.8766 89.0675 34.9979 89.6068 34.9979C89.9598 34.9979 90.2832 34.9459 90.5775 34.8417C90.8717 34.7374 91.0982 34.5932 91.2578 34.4093C91.4171 34.2254 91.4968 34.014 91.4968 33.7751C91.4968 33.43 91.3916 33.2102 91.1806 33.1153C90.9699 33.0204 90.6672 32.973 90.2723 32.973C89.9306 32.973 89.6211 32.9618 89.3438 32.9389C89.0666 32.9161 88.797 32.8629 88.5349 32.7793C88.2729 32.6957 88.0242 32.5701 87.7889 32.4029C87.5229 32.2129 87.2988 31.9858 87.1168 31.7213C86.9347 31.457 86.7988 31.1691 86.7097 30.8572C86.6203 30.5455 86.5759 30.226 86.5759 29.8991C86.5759 29.4619 86.6404 29.073 86.7696 28.7328C86.8988 28.3926 87.0839 28.1113 87.325 27.8888C87.5661 27.6662 87.8612 27.4981 88.2108 27.3841C88.5604 27.2701 88.9477 27.2129 89.373 27.2129H92.5918L92.5915 27.2135ZM90.7039 28.6279C90.7039 28.2479 90.6489 27.9949 90.5389 27.8693C90.3756 27.7438 90.1193 27.6811 89.7707 27.6811C89.3496 27.6811 88.9939 27.783 88.7036 27.9861C88.4133 28.1895 88.1963 28.4604 88.0522 28.7988C87.9081 29.1372 87.836 29.5118 87.836 29.9222C87.836 30.4202 87.9442 30.8605 88.1604 31.2424C88.3765 31.6246 88.662 31.9152 89.0167 32.115C89.3715 32.3147 89.7497 32.4145 90.1519 32.4145L90.7039 32.3804V28.6279Z" fill="black"/>
<path d="M14.7065 15.2295L14.701 15.235C14.6991 15.2313 14.6973 15.2258 14.6973 15.2202L14.7065 15.2295Z" fill="white"/>
<path d="M5.84991 15.9773C5.85417 15.815 5.83076 15.6447 5.98033 15.5243L5.9703 15.5149C6.0387 15.9472 6.5023 16.0734 6.74884 16.1987C7.14647 16.4012 7.16593 16.7162 7.31032 17.0041C7.38511 17.1534 7.36565 17.3653 7.46567 17.4845C8.04023 18.1689 8.22749 19.0284 8.55976 19.8211C8.77955 20.3458 9.28601 20.6021 9.63743 21.0409C9.84719 20.8211 9.64899 20.6611 9.56691 20.4988C9.15195 19.6782 8.6923 18.8776 8.46765 17.9737C8.45002 17.9022 8.27978 17.8566 8.42296 17.7621C8.51842 17.6991 8.61661 17.7599 8.66859 17.8384C8.80357 18.0421 8.97502 18.2412 9.03947 18.4684C9.30608 19.4082 10.0633 20.0613 10.4439 20.9357C10.6373 21.3799 10.9565 21.7682 11.1839 22.1999C11.3319 22.4811 11.5432 22.5447 11.6751 22.2875C12.0728 21.5118 12.7866 20.9488 13.0909 20.1129C13.1723 19.8892 13.3347 19.6852 13.4937 19.5012C13.8907 19.0415 14.215 18.5334 14.5637 18.0394C15.2796 17.0248 16.0324 16.0308 16.8361 15.0847C17.877 13.8597 18.7686 12.5252 19.7658 11.2701C20.2476 10.6633 20.592 9.93629 21.1304 9.40573C21.5803 8.96244 21.7399 8.41668 22.0631 7.95544C22.3254 7.58086 22.6732 7.1704 23.0955 6.89251C23.1423 6.8618 23.2219 6.81011 23.2462 6.82683C23.8171 7.21722 23.8561 6.60245 24.0667 6.37411C24.4963 5.90832 24.9422 5.46532 25.4572 5.09561C25.542 5.0348 25.6639 4.95119 25.7658 5.05C25.8649 5.14608 25.795 5.25918 25.7333 5.35678C25.4016 5.88278 25.0742 6.41273 24.6626 6.88156C24.4364 7.13909 24.2783 7.41972 24.2278 7.85845C24.6048 7.58481 24.8702 7.27803 25.3344 7.24155C24.9556 7.84599 24.5543 8.40877 24.2993 9.13483C24.9988 8.74778 25 7.77332 25.8755 7.63681C25.8469 8.05608 25.6402 8.41029 25.4411 8.75082C24.7437 9.94359 24.0281 11.126 23.311 12.3069C22.2132 14.1139 21.0131 15.8502 19.7974 17.5812C17.5758 20.7441 15.6417 24.0907 13.7527 27.4614C13.1976 28.4519 12.6312 29.4364 12.0825 30.4304C11.9025 30.7566 11.7672 30.7931 11.5365 30.4656C9.23798 27.2011 6.80933 24.026 4.83243 20.5416C4.38707 19.7566 4.06271 18.9038 3.53922 18.1561C6.1682 22.1418 8.92638 26.0342 11.7724 29.9819C13.2046 27.5821 14.4737 25.0898 15.9317 22.7025C15.6821 22.7499 15.6092 22.9454 15.5073 23.1078C14.309 25.0175 13.2264 26.9944 12.1062 28.9494C11.7648 29.5453 11.7618 29.5511 11.3423 28.974C9.33769 26.216 7.35471 23.4431 5.6286 20.4985C4.93853 19.3215 4.13962 18.1923 3.64167 16.9256C3.36594 16.2239 3.05799 15.5292 2.79199 14.8122C3.50122 15.6094 3.963 16.5799 4.74549 17.4231C4.85949 16.9612 4.52205 16.766 4.46003 16.5146C6.41018 18.6067 7.95389 21.0485 9.53863 23.4592C9.60764 23.4127 9.67665 23.3662 9.74596 23.3197C9.39727 22.7311 9.04008 22.147 8.70173 21.5526C8.20165 20.6742 7.7268 19.7815 7.21821 18.9083C6.83852 18.2568 6.41505 17.6326 6.04295 16.9737C5.84171 16.617 6.07335 16.2586 5.84231 15.9624L5.85052 15.9764L5.84991 15.9773Z" fill="white"/>
<path d="M33.8417 8.15252C33.6016 8.49153 33.4295 8.90928 33.0264 9.13275C33.1893 8.66909 33.4134 8.26745 33.6517 7.88283C33.5657 7.76182 33.4867 7.63412 33.3933 7.51676C33.2559 7.6174 33.1088 7.74358 32.955 7.85547C32.9841 7.6025 33.0653 7.38724 33.1608 7.21333C33.0009 6.99746 32.8309 6.78888 32.6589 6.59277C32.5379 6.83479 32.3853 7.10417 31.9749 6.82385C31.9493 6.80743 31.8703 6.85881 31.8229 6.88982C31.4015 7.1665 31.0535 7.57696 30.7914 7.95276C30.467 8.4146 30.3077 8.95884 29.8587 9.40214C29.3201 9.93361 28.9756 10.6612 28.4938 11.2678C27.497 12.5231 26.6047 13.857 25.5641 15.0811C24.7598 16.0285 24.0068 17.0218 23.2921 18.037C22.944 18.5298 22.6178 19.0394 22.222 19.4976C22.0627 19.6828 21.9013 19.8862 21.8189 20.1096C21.5149 20.9452 20.8002 21.5098 20.4026 22.2848C20.2706 22.5414 20.0599 22.4791 19.9116 22.1969C19.6845 21.7664 19.3656 21.3778 19.1714 20.9324C18.792 20.0583 18.0335 19.4058 17.7678 18.466C17.7037 18.2389 17.5316 18.0391 17.396 17.8357C17.3446 17.757 17.2458 17.6965 17.1504 17.7588C17.0075 17.8539 17.1777 17.8999 17.1963 17.9713C17.4197 18.8746 17.8797 19.6755 18.2955 20.4964C18.3761 20.6575 18.5758 20.819 18.3652 21.0388C18.0134 20.5989 17.5076 20.3425 17.2878 19.8184C16.9561 19.0248 16.7673 18.1656 16.194 17.4818C16.0934 17.3626 16.1134 17.1501 16.0384 17.0017C15.8936 16.7123 15.8754 16.3988 15.4778 16.1954C15.234 16.0726 14.778 15.9479 14.7029 15.5265C14.56 15.6457 14.5819 15.8141 14.5782 15.9737C14.7944 16.2668 14.5728 16.6207 14.7707 16.9725C15.1425 17.6305 15.5659 18.2553 15.9468 18.9059C16.4545 19.7801 16.9291 20.6724 17.4291 21.5502C17.7681 22.1458 18.1253 22.7284 18.4734 23.3185C18.4038 23.3644 18.336 23.41 18.2664 23.4578C16.6816 21.0461 15.1388 18.6052 13.1875 16.5125C13.2498 16.7636 13.5869 16.9598 13.4732 17.4213C12.6907 16.5767 12.2292 15.6071 11.52 14.8099C11.7857 15.5265 12.0934 16.2209 12.3703 16.9227C12.8667 18.189 13.6675 19.3194 14.3563 20.4961C16.0824 23.4411 18.0666 26.2136 20.0709 28.9713C20.4904 29.5487 20.4922 29.5429 20.8348 28.9476C21.9545 26.9923 23.0373 25.0151 24.2354 23.1057C24.336 22.9427 24.4096 22.7466 24.6585 22.6989C23.2018 25.0865 21.9323 27.5788 20.4995 29.9795C17.7037 26.1002 14.992 22.2738 12.4028 18.3577C12.85 19.054 13.1558 19.8257 13.5608 20.5383C15.5377 24.0239 17.9654 27.1975 20.2648 30.4632C20.4956 30.7913 20.6293 30.7545 20.8108 30.4283C21.3586 29.4331 21.9247 28.4493 22.4801 27.4578C24.3691 24.0878 26.3041 20.7418 28.5245 17.5788C29.7411 15.847 30.9413 14.1118 32.0387 12.3048C32.7552 11.123 33.4715 9.9409 34.1697 8.74784C34.1807 8.72777 34.1916 8.70922 34.2047 8.68916L33.842 8.15221L33.8417 8.15252Z" fill="white"/>
</g>
<defs>
<clipPath id="clip0_776_12950">
<rect width="92.7342" height="37" fill="white"/>
</clipPath>
</defs>
</svg>
