<svg width="120" height="48" viewBox="0 0 120 48" fill="none" xmlns="http://www.w3.org/2000/svg">
<g clip-path="url(#clip0_778_1986)">
<path d="M47.874 23.9986C47.874 37.2209 37.1576 47.9389 23.9372 47.9389C10.7169 47.9389 0 37.2209 0 23.9986C0 10.7763 10.7165 0.0605469 23.9368 0.0605469C31.1349 0.0605469 37.5934 3.23796 41.9796 8.27005C42.2027 8.52382 42.4206 8.78467 42.6315 9.05024C42.7357 9.17811 42.8376 9.30873 42.9348 9.43896C43.0555 9.59082 43.172 9.74741 43.2833 9.90361C43.3687 10.0173 43.4517 10.1314 43.5323 10.2475C43.6936 10.4753 43.8502 10.7074 44.0016 10.9423C46.4508 14.6961 47.8733 19.1801 47.8733 23.9986H47.874Z" fill="#F5F5F3"/>
<path d="M53.3818 8.43066V18.0164C54.1143 17.2948 54.8385 16.6685 55.5549 16.1373C56.2712 15.6066 57.0434 15.1738 57.8715 14.8398C58.6996 14.5054 59.5434 14.3382 60.4029 14.3382C61.7612 14.3382 62.7297 14.7548 63.3084 15.5881C63.8867 16.4218 64.1762 17.7087 64.1762 19.4497V26.7268C64.1762 27.8839 64.293 28.7785 64.5267 29.41C64.76 30.0419 65.3174 30.3999 66.1982 30.4849V30.7398H58.9702V30.4849C59.5327 30.4109 59.9517 30.193 60.2278 29.8322C60.504 29.4714 60.6763 29.0492 60.7451 28.5661C60.814 28.0829 60.8486 27.4593 60.8486 26.6949V20.8988C60.8486 19.6035 60.7105 18.5767 60.4344 17.8173C60.1582 17.0584 59.495 16.6787 58.4443 16.6787C57.7436 16.6787 57.0245 16.8935 56.287 17.3236C55.549 17.7536 54.9628 18.2552 54.5278 18.8285C54.0286 19.4655 53.7131 20.1158 53.5805 20.7791C53.4475 21.4425 53.3814 22.2837 53.3814 23.3031V26.6949C53.3814 27.47 53.4157 28.0963 53.4849 28.574C53.5537 29.0516 53.7288 29.471 54.0105 29.8318C54.2917 30.193 54.7241 30.4105 55.3078 30.4845V30.7395H48.1113V30.4526C48.7057 30.368 49.1436 30.1422 49.4248 29.7759C49.7061 29.4096 49.8811 28.9902 49.9504 28.5181C50.0192 28.046 50.0538 27.4381 50.0538 26.6949V13.2873C50.0538 12.4913 50.0192 11.8516 49.9504 11.3685C49.8811 10.8857 49.7061 10.4687 49.4248 10.1185C49.1436 9.76836 48.7057 9.58777 48.1113 9.57715V9.27459L53.3814 8.43066H53.3818Z" fill="#F5F5F3"/>
<path d="M73.4738 14.6567V26.7266C73.4738 27.8837 73.5852 28.7808 73.8082 29.4177C74.0313 30.0547 74.5726 30.3998 75.4321 30.4529V30.7397H68.188V30.4529C69.0369 30.3683 69.5754 30.015 69.804 29.3941C70.0322 28.7729 70.1462 27.8841 70.1462 26.727V19.0994C70.1462 17.9427 70.0322 17.0531 69.804 16.4323C69.5758 15.8114 69.0369 15.4585 68.188 15.3735V15.0867L73.4738 14.6567ZM69.5892 10.2301C69.5892 9.78434 69.6793 9.37555 69.8599 9.00415C70.04 8.63274 70.2949 8.34081 70.6242 8.12835C70.9531 7.91629 71.3512 7.81006 71.8181 7.81006C72.4231 7.81006 72.9381 8.04376 73.3625 8.51077C73.787 8.97818 73.9994 9.51955 73.9994 10.1349C73.9994 10.5279 73.9093 10.9151 73.7288 11.2971C73.5482 11.6791 73.2909 11.9872 72.9565 12.2205C72.6222 12.4542 72.2532 12.5711 71.85 12.5711C71.2025 12.5711 70.6639 12.3456 70.234 11.8944C69.804 11.4431 69.5892 10.8887 69.5892 10.2305V10.2301Z" fill="#F5F5F3"/>
<path d="M78.5532 16.3607H76.4038V16.0582C77.2846 15.8461 77.9612 15.3574 78.4337 14.593C78.9057 13.8285 79.1421 12.9582 79.1421 11.9813C79.1421 11.6206 79.0784 11.0686 78.9509 10.3254L81.8805 9.01953V14.9589H84.4917C85.0011 14.9589 85.4044 14.927 85.7018 14.8633C85.9988 14.7995 86.2907 14.6457 86.5774 14.4014L85.6699 16.7101C85.4472 16.4768 84.9799 16.3599 84.2687 16.3599H81.8805V25.8701C81.8805 26.6019 81.9387 27.209 82.0555 27.6914C82.1723 28.1737 82.3978 28.5396 82.7321 28.7887C83.0665 29.0381 83.5574 29.1624 84.2049 29.1624C85.4358 29.1624 86.4657 28.6584 87.2938 27.6497L87.4849 27.763L86.3862 30.447C85.1125 30.8538 83.7537 31.0572 82.3104 31.0572C81.3128 31.0572 80.5378 30.8554 79.9859 30.4521C79.434 30.0489 79.0568 29.5024 78.8554 28.8119C78.6536 28.1218 78.5528 27.2834 78.5528 26.2958V16.3595L78.5532 16.3607Z" fill="#F5F5F3"/>
<path d="M92.468 23.3991C92.6481 24.5137 93.0569 25.5354 93.6937 26.4644C94.3306 27.3933 95.1371 28.131 96.1138 28.6778C97.0902 29.2247 98.1358 29.4978 99.2503 29.4978C99.8761 29.4978 100.569 29.3384 101.328 29.0201C102.087 28.7018 102.71 28.33 103.199 27.9055C103.782 27.396 104.361 26.5678 104.934 25.4214L105.221 25.5488L103.533 30.9311C103.299 30.7824 103.05 30.7084 102.785 30.7084C102.625 30.7084 102.419 30.7296 102.164 30.7721L98.7412 31.0589C97.6689 31.0589 96.5442 30.8941 95.366 30.5652C94.1878 30.2363 93.0997 29.7291 92.1021 29.0445C91.1045 28.36 90.2977 27.4842 89.6824 26.4171C89.0668 25.3501 88.7588 24.1163 88.7588 22.7149C88.7588 21.1333 89.138 19.7027 89.8972 18.4236C90.6561 17.1446 91.691 16.1441 93.0018 15.4221C94.3125 14.7005 95.7586 14.3394 97.3404 14.3394C99.1342 14.3394 100.734 14.8437 102.141 15.8521C103.547 16.8609 104.478 18.2246 104.935 19.9443L92.4688 23.3999L92.468 23.3991ZM101.113 19.5139C100.773 18.5055 100.256 17.6509 99.561 16.9502C98.8655 16.2495 98.0245 15.8993 97.0375 15.8993C96.0505 15.8993 95.1481 16.1806 94.4262 16.7433C93.7044 17.3059 93.1658 18.0625 92.8102 19.0122C92.4546 19.9624 92.2768 20.9684 92.2768 22.0295L101.113 19.5135V19.5139Z" fill="#F5F5F3"/>
<path d="M52.2324 42.8326C52.1093 42.7834 52.0034 42.759 51.9149 42.759L51.6419 42.7735L51.2064 42.8176L50.2029 42.8766C49.3863 42.8766 48.6314 42.7118 47.9378 42.3821C47.2443 42.0524 46.6932 41.5739 46.2849 40.9464C45.8765 40.3193 45.6724 39.5875 45.6724 38.751C45.6724 38.0719 45.8211 37.4558 46.1188 36.9022C46.4162 36.3487 46.8356 35.9147 47.3769 35.5996C47.9178 35.2848 48.5279 35.1274 49.2069 35.1274L50.2844 35.2014L51.2509 35.2899C51.5019 35.2899 51.7131 35.236 51.8854 35.1274L52.3209 37.4523L52.2324 37.4963C51.9767 36.9798 51.6372 36.5765 51.2139 36.2861C50.7906 35.9958 50.3036 35.8506 49.7529 35.8506C49.2462 35.8506 48.8072 35.9934 48.4359 36.2786C48.0645 36.5639 47.7829 36.9392 47.5909 37.4039C47.3989 37.8689 47.3029 38.3548 47.3029 38.8616C47.3029 39.7177 47.5614 40.4483 48.0779 41.0534C48.3533 41.378 48.6864 41.6428 49.0779 41.8466C49.4689 42.0508 49.8662 42.1531 50.2694 42.1531C50.8056 42.1531 51.3158 42.0118 51.8004 41.729C52.2847 41.4461 52.6502 41.0684 52.896 40.5962L52.9995 40.6553L52.232 42.8322L52.2324 42.8326Z" fill="#F5F5F3"/>
<path d="M53.7597 39.0541C53.7597 38.2719 53.9442 37.5818 54.3132 36.9838C54.6822 36.3861 55.1849 35.9274 55.8222 35.6075C56.4591 35.2877 57.1711 35.1279 57.9582 35.1279C58.5487 35.1279 59.0872 35.2106 59.5742 35.375C60.0612 35.5399 60.4888 35.7846 60.8578 36.1092C61.2268 36.4338 61.5136 36.8351 61.7174 37.3119C61.9215 37.7892 62.0238 38.3207 62.0238 38.9061C62.0238 39.5211 61.9192 40.0711 61.7099 40.5554C61.501 41.0401 61.2044 41.4544 60.8209 41.7991C60.4373 42.1433 59.9861 42.4093 59.4672 42.5962C58.948 42.7831 58.3961 42.8767 57.8103 42.8767C57.2246 42.8767 56.6974 42.7905 56.2128 42.6182C55.7281 42.4463 55.3001 42.1929 54.9288 41.8581C54.5574 41.5237 54.2695 41.1165 54.0653 40.6369C53.8612 40.1573 53.7593 39.6297 53.7593 39.0541H53.7597ZM55.4787 38.7515C55.4787 39.3027 55.5637 39.839 55.7333 40.3603C55.9028 40.882 56.1723 41.3112 56.5413 41.648C56.9103 41.9852 57.3776 42.1536 57.9433 42.1536C58.4153 42.1536 58.8323 42.0135 59.1938 41.733C59.5557 41.4525 59.8311 41.0775 60.0203 40.6077C60.2095 40.138 60.3043 39.6422 60.3043 39.1205C60.3043 38.5988 60.2209 38.0653 60.0534 37.5633C59.8858 37.0613 59.6191 36.6505 59.2528 36.3307C58.8866 36.0108 58.4252 35.8511 57.8693 35.8511C57.0676 35.8511 56.4685 36.1269 56.0724 36.6777C55.6762 37.2289 55.4784 37.9202 55.4784 38.7515H55.4787Z" fill="#F5F5F3"/>
<path d="M63.987 37.3199C63.987 36.7836 63.9366 36.3729 63.8359 36.0876C63.7348 35.8024 63.5 35.6422 63.131 35.608V35.4754L65.153 35.276C65.3843 35.6942 65.5097 36.223 65.5294 36.8627C66.6557 35.7068 67.6788 35.1284 68.599 35.1284C69.3468 35.1284 69.8558 35.3436 70.1265 35.7741C70.3971 36.2049 70.5324 36.8308 70.5324 37.6523V40.8553C70.5324 41.2196 70.5482 41.5135 70.5804 41.7374C70.6123 41.9613 70.6945 42.1556 70.8275 42.3205C70.96 42.4853 71.1642 42.5774 71.44 42.5975V42.7301H68.0825V42.5975C68.4762 42.5581 68.7256 42.3945 68.8315 42.1065C68.9373 41.8185 68.99 41.4018 68.99 40.8557V38.2433C68.99 37.5791 68.9089 37.0748 68.7465 36.7305C68.584 36.3862 68.274 36.2139 67.8165 36.2139C67.5954 36.2139 67.37 36.2643 67.1415 36.365C66.9129 36.4661 66.6962 36.6022 66.492 36.7746C66.2879 36.9469 66.1195 37.1287 65.9865 37.3207C65.7847 37.6209 65.6581 37.9136 65.6065 38.1988C65.555 38.4841 65.529 38.8751 65.529 39.3721V40.8553C65.529 41.2094 65.5448 41.4974 65.577 41.7189C65.6089 41.9404 65.6903 42.136 65.8205 42.3055C65.9507 42.4751 66.1514 42.5774 66.422 42.612V42.7301H63.0869V42.5975C63.4854 42.553 63.7348 42.3882 63.8359 42.1029C63.9366 41.8177 63.987 41.4069 63.987 40.8703V37.3207V37.3199Z" fill="#F5F5F3"/>
<path d="M78.4246 37.6962L78.3133 37.7108C78.2495 37.337 78.0835 37.0073 77.8156 36.7217C77.5477 36.4364 77.2232 36.22 76.8424 36.0721C76.4616 35.9245 76.0816 35.8506 75.7032 35.8506C75.477 35.8506 75.2535 35.8801 75.0321 35.9391C74.811 35.9981 74.623 36.0992 74.468 36.2417C74.3134 36.3845 74.2359 36.5714 74.2359 36.8027C74.2359 37.1422 74.3972 37.3834 74.7193 37.5258C75.0415 37.6687 75.6233 37.8614 76.4644 38.105C77.3054 38.3485 77.9427 38.629 78.3754 38.9462C78.8081 39.2637 79.0249 39.7173 79.0249 40.3079C79.0249 40.721 78.9313 41.09 78.7444 41.415C78.5575 41.7396 78.3077 42.0079 77.9954 42.2196C77.6831 42.4312 77.3314 42.5933 76.9404 42.7067C76.5493 42.82 76.1567 42.8766 75.7634 42.8766C75.37 42.8766 75.001 42.8444 74.6269 42.7806C74.2532 42.7165 73.8901 42.6417 73.5384 42.5556C73.1867 42.4694 72.9814 42.4265 72.9224 42.4265C72.7894 42.4265 72.6639 42.4977 72.5459 42.6406L72.4204 39.6736L72.5455 39.6441C72.5994 40.1265 72.7666 40.5616 73.0467 40.9503C73.3264 41.3391 73.6851 41.6369 74.1222 41.8434C74.5592 42.05 75.0238 42.1535 75.5147 42.1535C75.7996 42.1535 76.0981 42.1008 76.4101 41.9949C76.722 41.8891 76.9785 41.7294 77.1799 41.5153C77.3813 41.3013 77.482 41.0467 77.482 40.7517C77.482 40.3728 77.3101 40.1048 76.9663 39.9471C76.6225 39.7897 76.0332 39.5855 75.1981 39.3345C74.3629 39.0835 73.7371 38.8018 73.3193 38.4894C72.9019 38.177 72.6934 37.7206 72.6934 37.1202C72.6934 36.6579 72.8358 36.2763 73.121 35.9765C73.4062 35.6763 73.7662 35.4599 74.2012 35.3269C74.6363 35.1939 75.0753 35.1274 75.5175 35.1274C75.8715 35.1274 76.191 35.151 76.4762 35.1975C76.7614 35.2443 77.0588 35.3021 77.3684 35.371C77.6779 35.4398 77.8723 35.4745 77.951 35.4745C78.0886 35.4745 78.209 35.4351 78.3121 35.3564L78.4234 37.6958L78.4246 37.6962Z" fill="#F5F5F3"/>
<path d="M86.2797 42.7293C86.1117 42.3209 86.0102 41.8067 85.9756 41.187C85.5869 41.5364 85.2329 41.8267 84.9131 42.0577C84.5933 42.289 84.2491 42.4834 83.8801 42.6408C83.5111 42.7981 83.1299 42.8768 82.7361 42.8768C81.5308 42.8768 80.9285 42.1265 80.9285 40.626V37.3345C80.9285 36.8033 80.877 36.3886 80.7735 36.0908C80.6701 35.7934 80.4195 35.632 80.021 35.6073V35.4747L82.471 35.2752V39.8285C82.471 40.5418 82.5457 41.0525 82.6956 41.3597C82.8451 41.6674 83.1385 41.8208 83.5752 41.8208C83.9285 41.8208 84.2845 41.715 84.6428 41.5033C85.0012 41.2917 85.2833 41.0308 85.4894 40.7212C85.6955 40.4112 85.8281 40.0779 85.8867 39.7211C85.9457 39.3642 85.9752 38.935 85.9752 38.4333V37.3337C85.9752 36.7927 85.9237 36.3745 85.8202 36.079C85.7172 35.7839 85.4662 35.6261 85.0677 35.6065V35.4739L87.5177 35.2744V40.8978C87.5177 41.4046 87.5727 41.8142 87.6837 42.1265C87.7942 42.4389 88.0515 42.5951 88.4547 42.5951V42.7277H86.2797V42.7293Z" fill="#F5F5F3"/>
<path d="M91.7683 32.39V40.8694C91.7683 41.4057 91.8199 41.8216 91.9233 42.1166C92.0268 42.4117 92.2778 42.5719 92.6759 42.5962V42.7288H89.3184V42.5962C89.5937 42.5616 89.7991 42.4597 89.9344 42.2898C90.0697 42.1198 90.1519 41.9282 90.1814 41.7142C90.2109 41.5001 90.2259 41.2184 90.2259 40.869V34.6405C90.2259 34.0846 90.1728 33.664 90.0674 33.3784C89.9615 33.0931 89.7117 32.9405 89.3184 32.9208V32.7807L91.7679 32.3896L91.7683 32.39Z" fill="#F5F5F3"/>
<path d="M94.122 36.0652H93.126V35.9251C93.5343 35.8267 93.8478 35.6001 94.0669 35.246C94.2857 34.8919 94.395 34.4883 94.395 34.0358C94.395 33.8686 94.3655 33.6128 94.3065 33.2682L95.6645 32.6631V35.416H96.8745C97.1105 35.416 97.2974 35.4014 97.4355 35.3719C97.5731 35.3424 97.7085 35.2712 97.8414 35.1579L97.4209 36.228C97.3174 36.1198 97.1011 36.0655 96.7714 36.0655H95.6649V40.4732C95.6649 40.8124 95.692 41.0937 95.7459 41.3172C95.8002 41.5406 95.9044 41.7102 96.0594 41.8259C96.2144 41.9416 96.4418 41.999 96.7419 41.999C97.3123 41.999 97.7899 41.7653 98.1734 41.2979L98.2619 41.3502L97.7525 42.5943C97.1621 42.7827 96.5326 42.8772 95.8635 42.8772C95.4009 42.8772 95.0417 42.7835 94.786 42.5966C94.5303 42.4098 94.3553 42.1564 94.2621 41.8365C94.1684 41.5166 94.122 41.1279 94.122 40.6704V36.0652Z" fill="#F5F5F3"/>
<path d="M101.132 35.2756V40.8695C101.132 41.4058 101.184 41.8217 101.287 42.1167C101.391 42.4118 101.642 42.572 102.04 42.5963V42.7289H98.6821V42.5963C99.0755 42.557 99.3253 42.3933 99.4311 42.1053C99.5369 41.8173 99.5897 41.4054 99.5897 40.8691V37.3341C99.5897 36.7978 99.5366 36.3859 99.4311 36.0979C99.3253 35.8099 99.0755 35.6466 98.6821 35.6073V35.4747L101.132 35.2752L101.132 35.2756ZM99.3316 33.2238C99.3316 33.0173 99.3733 32.828 99.4571 32.6557C99.5409 32.4838 99.6589 32.3484 99.8111 32.2501C99.9638 32.1517 100.148 32.1025 100.365 32.1025C100.645 32.1025 100.883 32.2107 101.081 32.4271C101.277 32.6435 101.376 32.8945 101.376 33.1798C101.376 33.3619 101.334 33.5413 101.25 33.7184C101.166 33.8954 101.047 34.0383 100.892 34.1465C100.737 34.2547 100.566 34.3089 100.379 34.3089C100.079 34.3089 99.8292 34.2043 99.6302 33.9954C99.4311 33.7865 99.3312 33.5291 99.3312 33.2242L99.3316 33.2238Z" fill="#F5F5F3"/>
<path d="M103.877 37.3199C103.877 36.7836 103.827 36.3729 103.726 36.0876C103.625 35.8024 103.39 35.6422 103.021 35.608V35.4754L105.043 35.276C105.274 35.6942 105.4 36.223 105.42 36.8627C106.546 35.7068 107.569 35.1284 108.489 35.1284C109.237 35.1284 109.746 35.3436 110.017 35.7741C110.287 36.2049 110.423 36.8308 110.423 37.6523V40.8553C110.423 41.2196 110.438 41.5135 110.471 41.7374C110.502 41.9613 110.585 42.1556 110.718 42.3205C110.85 42.4853 111.054 42.5774 111.33 42.5975V42.7301H107.973V42.5975C108.366 42.5581 108.616 42.3945 108.722 42.1065C108.827 41.8185 108.88 41.4018 108.88 40.8557V38.2433C108.88 37.5791 108.799 37.0748 108.637 36.7305C108.474 36.3862 108.164 36.2139 107.707 36.2139C107.486 36.2139 107.26 36.2643 107.032 36.365C106.803 36.4661 106.586 36.6022 106.382 36.7746C106.178 36.9469 106.01 37.1287 105.877 37.3207C105.675 37.6209 105.548 37.9136 105.497 38.1988C105.445 38.4841 105.419 38.8751 105.419 39.3721V40.8553C105.419 41.2094 105.435 41.4974 105.467 41.7189C105.499 41.9404 105.58 42.136 105.711 42.3055C105.841 42.4751 106.041 42.5774 106.312 42.612V42.7301H102.977V42.5975C103.376 42.553 103.625 42.3882 103.726 42.1029C103.827 41.8177 103.877 41.4069 103.877 40.8703V37.3207V37.3199Z" fill="#F5F5F3"/>
<path d="M119.815 35.2757V35.4158C119.445 35.4354 119.202 35.5464 119.087 35.7478C118.973 35.9497 118.915 36.2373 118.915 36.6114V41.1131C118.915 41.4035 118.937 41.6148 118.981 41.7478C119.025 41.8807 119.145 42.0456 119.341 42.2423C119.56 42.454 119.725 42.6531 119.835 42.8399C119.946 43.0268 120 43.2582 120 43.5336C120 43.9176 119.889 44.2689 119.665 44.5888C119.441 44.9087 119.14 45.1758 118.761 45.3894C118.383 45.6035 117.944 45.766 117.446 45.8765C116.947 45.9871 116.444 46.0425 115.938 46.0425C115.171 46.0425 114.446 45.9288 113.763 45.7018C113.08 45.4744 112.49 45.1117 111.994 44.6128L113.691 42.9131L113.765 43.0009C113.622 43.246 113.551 43.4667 113.551 43.6634C113.551 44.1588 113.777 44.5636 114.229 44.878C114.681 45.1919 115.255 45.3489 115.953 45.3489C116.41 45.3489 116.828 45.2816 117.209 45.1467C117.59 45.0117 117.883 44.8252 118.09 44.5872C118.296 44.3492 118.399 44.0757 118.399 43.7665C118.399 43.3199 118.263 43.0355 117.99 42.9127C117.717 42.79 117.325 42.7286 116.814 42.7286C116.372 42.7286 115.972 42.714 115.613 42.6845C115.254 42.655 114.905 42.5862 114.566 42.478C114.227 42.3698 113.905 42.2073 113.601 41.9909C113.257 41.745 112.967 41.4511 112.731 41.1088C112.495 40.7669 112.319 40.3943 112.204 39.9907C112.089 39.5874 112.031 39.1739 112.031 38.7509C112.031 38.1852 112.115 37.682 112.282 37.2417C112.449 36.8014 112.688 36.4375 113 36.1495C113.312 35.8615 113.694 35.6439 114.147 35.4964C114.599 35.3489 115.1 35.2749 115.651 35.2749H119.816L119.815 35.2757ZM117.373 37.106C117.373 36.6142 117.302 36.2868 117.159 36.1243C116.948 35.9618 116.616 35.8808 116.165 35.8808C115.62 35.8808 115.16 36.0126 114.784 36.2754C114.409 36.5386 114.128 36.8892 113.941 37.3271C113.755 37.765 113.662 38.2497 113.662 38.7808C113.662 39.4253 113.802 39.995 114.081 40.4891C114.361 40.9837 114.73 41.3598 115.19 41.6183C115.649 41.8768 116.138 42.0059 116.658 42.0059L117.373 41.9618V37.106Z" fill="#F5F5F3"/>
<path d="M19.0305 19.7678L19.0233 19.775C19.0209 19.7702 19.0186 19.763 19.0186 19.7559L19.0305 19.7678Z" fill="#612848"/>
<path d="M7.56981 20.7358C7.57532 20.5257 7.54503 20.3054 7.73857 20.1496L7.72559 20.1374C7.8141 20.6969 8.414 20.8602 8.73304 21.0223C9.24758 21.2843 9.27275 21.6919 9.45961 22.0645C9.55638 22.2577 9.53121 22.5319 9.66063 22.6861C10.4041 23.5717 10.6464 24.684 11.0764 25.7097C11.3608 26.3888 12.0162 26.7204 12.4709 27.2882C12.7424 27.0037 12.4859 26.7968 12.3797 26.5867C11.8427 25.5248 11.2479 24.4889 10.9572 23.3192C10.9344 23.2267 10.7141 23.1677 10.8994 23.0453C11.0229 22.9639 11.15 23.0426 11.2172 23.1441C11.3919 23.4077 11.6138 23.6654 11.6972 23.9593C12.0422 25.1754 13.0221 26.0205 13.5146 27.152C13.7648 27.7269 14.1778 28.2293 14.4721 28.788C14.6636 29.1519 14.937 29.2341 15.1078 28.9013C15.6223 27.8976 16.546 27.169 16.9397 26.0874C17.0452 25.7978 17.2552 25.5338 17.461 25.2958C17.9747 24.7009 18.3945 24.0435 18.8457 23.4041C19.7721 22.0912 20.7461 20.8051 21.7862 19.5807C23.1331 17.9955 24.2869 16.2687 25.5772 14.6446C26.2007 13.8593 26.6464 12.9186 27.3431 12.232C27.9253 11.6584 28.1318 10.9522 28.55 10.3553C28.8895 9.87062 29.3395 9.33948 29.8859 8.97988C29.9465 8.94014 30.0495 8.87326 30.081 8.89489C30.8198 9.40007 30.8701 8.60454 31.1428 8.30906C31.6986 7.70632 32.2757 7.13307 32.9421 6.65465C33.0518 6.57597 33.2096 6.46777 33.3414 6.59564C33.4696 6.71996 33.3791 6.86632 33.2993 6.99262C32.8701 7.67327 32.4464 8.35903 31.9138 8.96571C31.6211 9.29896 31.4165 9.6621 31.3512 10.2298C31.839 9.87574 32.1825 9.47876 32.7832 9.43155C32.293 10.2137 31.7737 10.942 31.4437 11.8815C32.3489 11.3806 32.3504 10.1197 33.4834 9.94302C33.4464 10.4856 33.1789 10.9439 32.9212 11.3846C32.0188 12.928 31.0928 14.4581 30.1648 15.9862C28.7443 18.3245 27.1912 20.5714 25.6181 22.8112C22.7433 26.9042 20.2406 31.2348 17.7961 35.5964C17.0778 36.8783 16.345 38.1522 15.6349 39.4384C15.402 39.8605 15.227 39.9077 14.9284 39.484C11.954 35.2596 8.81132 31.151 6.25316 26.6421C5.67686 25.6263 5.25712 24.5227 4.57972 23.5552C7.98168 28.7128 11.5508 33.7496 15.2337 38.858C17.0869 35.7526 18.7292 32.5276 20.6159 29.4383C20.2929 29.4997 20.1985 29.7527 20.0667 29.9628C18.516 32.434 17.1152 34.9921 15.6656 37.5219C15.2238 38.2931 15.2199 38.3005 14.677 37.5538C12.0831 33.9849 9.51704 30.3967 7.28343 26.5863C6.39045 25.0633 5.35665 23.602 4.71229 21.963C4.3555 21.0549 3.957 20.1559 3.61279 19.2282C4.53055 20.2598 5.1281 21.5156 6.14066 22.6066C6.28818 22.009 5.85152 21.7564 5.77127 21.431C8.29481 24.1383 10.2924 27.298 12.3431 30.4176C12.4324 30.3574 12.5217 30.2972 12.6114 30.237C12.1602 29.4753 11.6979 28.7195 11.2601 27.9503C10.613 26.8137 9.99854 25.6586 9.34042 24.5286C8.84908 23.6855 8.3011 22.8777 7.81961 22.0251C7.55919 21.5636 7.85894 21.0998 7.55997 20.7166L7.5706 20.7347L7.56981 20.7358Z" fill="#1F2023"/>
<path d="M43.792 10.6097C43.4812 11.0483 43.2586 11.5889 42.7369 11.8781C42.9478 11.2781 43.2377 10.7584 43.5461 10.2607C43.4348 10.1041 43.3325 9.93884 43.2118 9.78697C43.0339 9.9172 42.8436 10.0805 42.6445 10.2253C42.6823 9.89792 42.7873 9.61937 42.9108 9.39432C42.7039 9.11498 42.484 8.84508 42.2613 8.59131C42.1048 8.90449 41.9073 9.25307 41.3762 8.89032C41.3432 8.86908 41.2409 8.93557 41.1796 8.9757C40.6343 9.33373 40.1839 9.86487 39.8448 10.3512C39.4251 10.9488 39.2189 11.6531 38.6379 12.2267C37.9408 12.9144 37.4951 13.8559 36.8716 14.6408C35.5817 16.2653 34.4272 17.9914 33.0806 19.5753C32.0397 20.8013 31.0653 22.0867 30.1405 23.4004C29.6901 24.0381 29.268 24.6975 28.7558 25.2904C28.5497 25.53 28.3408 25.7933 28.2342 26.0824C27.8408 27.1636 26.916 27.8942 26.4014 28.8971C26.2307 29.2292 25.9581 29.1485 25.7661 28.7834C25.4723 28.2263 25.0596 27.7235 24.8082 27.1471C24.3173 26.0159 23.3358 25.1716 22.992 23.9555C22.909 23.6616 22.6863 23.4031 22.5109 23.1399C22.4444 23.038 22.3166 22.9597 22.193 23.0404C22.0081 23.1635 22.2284 23.2229 22.2524 23.3154C22.5416 24.4843 23.1368 25.5206 23.6749 26.5829C23.7791 26.7914 24.0376 27.0003 23.765 27.2848C23.3098 26.7155 22.6553 26.3838 22.3708 25.7055C21.9417 24.6786 21.6974 23.5668 20.9555 22.6819C20.8252 22.5277 20.8512 22.2527 20.754 22.0607C20.5668 21.6861 20.5432 21.2805 20.0287 21.0173C19.7132 20.8583 19.1231 20.697 19.0259 20.1517C18.841 20.306 18.8694 20.5239 18.8646 20.7305C19.1443 21.1098 18.8576 21.5677 19.1136 22.0229C19.5948 22.8743 20.1427 23.6828 20.6356 24.5248C21.2926 25.6559 21.9066 26.8107 22.5538 27.9465C22.9924 28.7173 23.4546 29.4711 23.905 30.2348C23.8149 30.2942 23.7272 30.3532 23.6371 30.415C21.5864 27.2942 19.59 24.1357 17.0649 21.4277C17.1456 21.7526 17.5818 22.0064 17.4347 22.6036C16.4221 21.5107 15.825 20.256 14.9072 19.2244C15.251 20.1517 15.6491 21.0503 16.0075 21.9584C16.6499 23.5971 17.6861 25.0599 18.5775 26.5825C20.8111 30.3933 23.3787 33.9811 25.9722 37.5496C26.5151 38.2967 26.5175 38.2893 26.9608 37.5189C28.4096 34.9887 29.8108 32.4302 31.3612 29.9594C31.4914 29.7485 31.5866 29.4947 31.9087 29.433C30.0237 32.5226 28.3809 35.7477 26.5269 38.8542C22.909 33.8344 19.4 28.8829 16.0496 23.8154C16.6283 24.7164 17.024 25.715 17.548 26.6372C20.1061 31.1476 23.2477 35.2543 26.2232 39.4802C26.5218 39.9047 26.6949 39.8571 26.9297 39.435C27.6386 38.1472 28.3711 36.8741 29.0898 35.5911C31.5342 31.2302 34.0381 26.9004 36.9114 22.8074C38.4857 20.5664 40.0387 18.3211 41.4589 15.9828C42.386 14.4536 43.3129 12.9239 44.2164 11.38C44.2306 11.354 44.2448 11.33 44.2617 11.3041L43.7924 10.6093L43.792 10.6097Z" fill="#1F2023"/>
</g>
<defs>
<clipPath id="clip0_778_1986">
<rect width="120" height="47.8788" fill="white" transform="translate(0 0.0605469)"/>
</clipPath>
</defs>
</svg>
