<svg width="60" height="60" viewBox="0 0 60 60" fill="none" xmlns="http://www.w3.org/2000/svg">
    <path d="M37.6942 23.7942L22.8227 35.6319C22.5157 35.8763 22.4651 36.3236 22.709 36.6306C22.8493 36.8068 23.0563 36.8987 23.2657 36.8987C23.4206 36.8987 23.5769 36.8485 23.7077 36.7443L38.5792 24.9066C38.8861 24.6621 38.9368 24.2149 38.6929 23.9079C38.4489 23.6009 38.0017 23.5497 37.6942 23.7942Z" fill="#612848"/>
    <path d="M24.631 28.2814C25.2706 28.7485 26.0248 28.9934 26.8022 28.9934C26.9927 28.9934 27.185 28.9788 27.3769 28.9489C29.3884 28.6358 30.7708 26.7445 30.4586 24.733C30.1455 22.7209 28.2533 21.3385 26.2427 21.6517C24.2307 21.9644 22.8483 23.8556 23.1614 25.8671C23.3126 26.8417 23.8342 27.6996 24.631 28.2814ZM26.4606 23.0559C26.5781 23.0374 26.6951 23.0284 26.8107 23.0284C27.9103 23.0284 28.8796 23.8314 29.0539 24.9514C29.2463 26.1888 28.3959 27.3524 27.1585 27.5447C26.5577 27.638 25.9589 27.4921 25.4695 27.134C24.9797 26.7763 24.6585 26.2485 24.5656 25.6492C24.3733 24.4118 25.2232 23.2482 26.4606 23.0559Z" fill="#612848"/>
    <path d="M34.6235 31.5166C32.5869 31.5166 30.9297 33.1733 30.9297 35.2095C30.9297 37.2457 32.5869 38.902 34.6235 38.902C36.6602 38.902 38.3169 37.2452 38.3169 35.2095C38.3173 33.1733 36.6602 31.5166 34.6235 31.5166ZM34.6235 37.4807C33.3704 37.4807 32.3509 36.4616 32.3509 35.2095C32.3509 33.9569 33.3704 32.9379 34.6235 32.9379C35.8766 32.9379 36.8956 33.9569 36.8956 35.2095C36.8961 36.4621 35.8766 37.4807 34.6235 37.4807Z" fill="#612848"/>
    <path d="M48.8642 26.3532C47.4557 25.6516 45.9999 24.9258 45.6029 23.9878C45.1978 23.0303 45.755 21.5067 46.2936 20.0334C47.0251 18.0322 47.7821 15.9633 46.4087 14.5909C45.0576 13.2392 43.0536 13.704 41.1151 14.1541C39.727 14.4762 38.2915 14.8093 37.3156 14.3966C36.3652 13.9939 35.5883 12.7683 34.8369 11.583C33.7724 9.90354 32.5663 8 30.5007 8C28.4314 8 27.2484 9.94571 26.2048 11.6626C25.4643 12.8806 24.6982 14.1403 23.7484 14.5421C22.7739 14.9542 21.3218 14.5885 19.9172 14.2356C17.9639 13.7443 15.9443 13.2369 14.5913 14.5909C13.225 15.9562 13.8977 18.037 14.5486 20.0495C15.0248 21.5209 15.5165 23.0426 15.1086 24.0072C14.7116 24.9476 13.3197 25.6668 11.9738 26.3627C10.111 27.3258 8 28.4174 8 30.5C8 32.576 10.0291 33.7111 11.8194 34.7126C13.1018 35.4299 14.4278 36.1718 14.8277 37.1164C15.2375 38.0853 14.8082 39.5743 14.3937 41.014C13.8219 42.9981 13.2307 45.0504 14.5913 46.4101C15.9936 47.8119 18.2415 46.6451 20.4155 45.5152C21.9955 44.6946 23.7867 43.7632 24.7181 44.1579C25.6273 44.5425 26.2365 46.421 26.7742 48.0782C27.5587 50.4976 28.3707 53 30.5012 53C32.634 53 33.419 50.4953 34.1779 48.073C34.6991 46.4106 35.2898 44.526 36.198 44.1422C37.1294 43.7485 38.941 44.6823 40.539 45.5066C42.7362 46.6403 45.0079 47.8119 46.4092 46.4106C47.7835 45.0367 47.0308 42.9967 46.3031 41.0235C45.7682 39.5729 45.2149 38.073 45.619 37.1164C46.0165 36.177 47.4676 35.4304 48.8708 34.7084C50.9008 33.6637 53 32.584 53 30.5C52.9986 28.4136 50.8966 27.3661 48.8642 26.3532ZM48.2194 33.4449C46.5911 34.2825 44.9074 35.1489 44.3091 36.5636C43.6861 38.0379 44.3384 39.8059 44.969 41.5157C45.5683 43.1407 46.1344 44.6752 45.4034 45.4057C44.7364 46.0732 42.8518 45.1016 41.1899 44.2441C39.2229 43.2293 37.1891 42.1804 35.6437 42.8337C34.1296 43.4738 33.464 45.5962 32.8211 47.6489C32.2157 49.5814 31.5894 51.5797 30.5007 51.5797C29.403 51.5797 28.7535 49.5771 28.1253 47.6404C27.463 45.5985 26.7785 43.487 25.2715 42.8498C24.937 42.7082 24.5807 42.6461 24.2079 42.6461C22.8558 42.6461 21.2877 43.461 19.7599 44.2545C18.1207 45.1068 16.2617 46.0723 15.5956 45.4057C14.8281 44.6387 15.2801 43.0696 15.7591 41.4082C16.2423 39.7306 16.7421 37.9962 16.1362 36.5631C15.5463 35.1698 14.0043 34.3071 12.5129 33.4728C10.923 32.5836 9.42125 31.7431 9.42125 30.5009C9.42125 29.2834 10.978 28.478 12.6266 27.6262C14.1966 26.8142 15.8207 25.9747 16.4176 24.5615C17.0316 23.1099 16.4569 21.3324 15.9007 19.6131C15.3578 17.9341 14.8447 16.3475 15.5961 15.5971C16.3797 14.8126 17.9298 15.2025 19.5708 15.6151C21.2024 16.0259 22.8909 16.4504 24.3022 15.8525C25.6742 15.2726 26.5615 13.8134 27.4194 12.4021C28.3508 10.87 29.2306 9.42268 30.5007 9.42268C31.7841 9.42268 32.6837 10.8425 33.6365 12.3453C34.5048 13.7149 35.4021 15.1314 36.7623 15.707C38.1641 16.2997 39.8279 15.9136 41.4367 15.5398C43.0688 15.1613 44.6104 14.8031 45.4044 15.5971C46.1363 16.3286 45.5645 17.8915 44.9595 19.5463C44.3266 21.2784 43.6714 23.0692 44.2949 24.5425C44.8965 25.9643 46.5916 26.8095 48.2312 27.6262C49.9524 28.4842 51.5783 29.2943 51.5783 30.5009C51.5773 31.7166 49.9462 32.5561 48.2194 33.4449Z" fill="#612848"/>
</svg>
