<svg width="60" height="60" viewBox="0 0 60 60" fill="none" xmlns="http://www.w3.org/2000/svg">
    <path d="M19.7222 21.2529C18.2838 21.2529 17.1133 22.6351 17.1133 24.3334C17.1133 26.0317 18.2833 27.4139 19.7222 27.4139C21.161 27.4139 22.331 26.0324 22.331 24.3334C22.331 22.6345 21.1605 21.2529 19.7222 21.2529ZM19.7222 25.5469C19.1556 25.5469 18.6944 25.0024 18.6944 24.3334C18.6944 23.6644 19.1556 23.1199 19.7222 23.1199C20.2887 23.1199 20.7499 23.6644 20.7499 24.3334C20.7499 25.0024 20.2887 25.5469 19.7222 25.5469Z" fill="#F5F5F3"/>
    <path d="M31.835 16.3962C27.1917 16.1156 25.267 18.2769 25.1874 18.3696C24.8791 18.7274 24.8754 19.3074 25.1747 19.6765C25.473 20.0455 25.9721 20.0573 26.2889 19.7095C26.3037 19.6927 27.8679 18.0217 31.7538 18.2607C35.2782 18.4754 37.1329 20.4282 37.1481 20.445C37.3005 20.6124 37.4934 20.6952 37.6863 20.6952C37.8976 20.6952 38.1095 20.595 38.2655 20.3971C38.5622 20.02 38.5443 19.4288 38.2249 19.0778C38.1348 18.9789 35.9676 16.6476 31.835 16.3962Z" fill="#F5F5F3"/>
    <path d="M54.3457 17.0131C53.2468 16.7853 50.6184 16.4268 49.9206 18.0094C49.3646 19.2708 50.3422 20.6468 51.126 21.5722C51.8006 22.3694 51.9708 22.7988 52.013 22.9587C51.6862 23.166 50.6263 23.1921 49.6128 23.0278C46.3841 16.1985 38.9454 11.406 30.3029 11.406C28.1926 11.406 26.0976 11.6991 24.0669 12.2785C22.7957 9.69022 19.9402 8 16.712 8C16.2751 8 15.9214 8.41758 15.9214 8.93348V16.6291C14.0694 18.2185 12.5789 20.0407 11.4816 22.0557H8.41842C6.5337 22.0557 5 24.0167 5 26.4269V29.724C5 35.6491 11.986 41.4143 14.6792 43.5656L16.1723 52.252C16.2471 52.6864 16.5713 52.9994 16.9471 52.9994H20.8398C21.2061 52.9994 21.5245 52.7019 21.6088 52.2812L22.3719 48.4801C25.0588 49.622 27.2972 49.8517 30.3029 49.8517C33.0757 49.8517 35.0511 49.66 37.5593 48.6786L38.3583 52.3018C38.4489 52.7131 38.7636 53 39.123 53H43.0158C43.3863 53 43.7073 52.6963 43.7879 52.2688L45.3079 44.1743C49.4157 40.5262 51.331 36.2129 51.331 30.6276C51.331 28.6691 51.0068 26.7791 50.4092 24.9981C50.5573 25.0074 50.7075 25.0142 50.8603 25.0142C51.9207 25.0142 53.0328 24.7628 53.4508 23.8144C54.0063 22.5536 53.0286 21.177 52.2454 20.2516C51.5703 19.4538 51.4005 19.025 51.3584 18.8651C51.7178 18.6367 52.9748 18.6249 54.0732 18.8514C54.5048 18.9385 54.9128 18.6006 54.9881 18.0928C55.063 17.5856 54.7757 17.1021 54.3457 17.0131ZM44.1326 42.878C43.9776 43.0124 43.8691 43.2078 43.8274 43.4293L42.3807 51.1324H39.7339L38.8727 47.2255C38.8168 46.9703 38.6713 46.7544 38.4732 46.633C38.274 46.5111 38.0421 46.4936 37.8323 46.5857C35.42 47.6443 33.5906 47.9841 30.3029 47.9841C27.1833 47.9841 24.9534 47.7252 22.1089 46.3611C21.8955 46.2578 21.6546 46.2708 21.4491 46.3966C21.2441 46.521 21.0954 46.7463 21.0422 47.0108L20.2147 51.1324H17.5932L16.1644 42.8201C16.1228 42.5805 16.0037 42.3689 15.8318 42.2326C9.69334 37.343 6.58114 33.1343 6.58114 29.7233V26.4263C6.58114 25.0454 7.40544 23.9221 8.41842 23.9221H11.7035L11.7789 23.9214C11.8015 23.9208 11.8231 23.919 11.8458 23.9214C12.1488 23.96 12.4414 23.7808 12.5979 23.4721C13.6609 21.3793 15.1973 19.4961 17.1647 17.875C17.3766 17.7007 17.5031 17.4145 17.5031 17.1095V9.90741C20.0224 10.1694 22.1864 11.6673 22.9164 13.7285C23.0687 14.1591 23.4687 14.3894 23.8503 14.2699C25.9427 13.6084 28.1136 13.2729 30.304 13.2729C41.0267 13.2729 49.7498 21.0582 49.7498 30.6276C49.7488 35.7437 48.0169 39.5218 44.1326 42.878Z" fill="#F5F5F3"/>
</svg>
