<svg width="60" height="60" viewBox="0 0 60 60" fill="none" xmlns="http://www.w3.org/2000/svg">
    <path d="M54.9895 42.1248C54.8769 38.8914 53.8804 34.9951 52.1832 31.1542C48.453 22.7096 42.8812 17.5834 39.2252 19.2356L37.1002 20.1938V15.0993C37.1002 11.0523 30.2001 8 21.0501 8C11.9001 8 5 11.0523 5 15.0993V24.2211C5 24.2694 5.00648 24.3158 5.01414 24.3623C5.00707 24.4087 5 24.4552 5 24.5034C5 24.5856 5.00766 24.6672 5.01296 24.7482C5.00648 24.7911 5 24.8346 5 24.8792V34.0011C5 34.0493 5.00648 34.0958 5.01414 34.1422C5.00707 34.1887 5 34.2352 5 34.2834C5 34.3864 5.00766 34.4883 5.0165 34.5895C5.00648 34.6425 5 34.6973 5 34.7533V43.874C5 43.9222 5.00648 43.9687 5.01414 44.0151C5.00707 44.0616 5 44.108 5 44.1563C5 48.2038 11.9001 51.2561 21.0501 51.2561C26.8494 51.2561 32.1365 49.9215 34.9304 47.8089C37.4237 51.0757 40.1062 53 42.352 53C42.8653 53 43.3562 52.8999 43.8158 52.6921L52.3117 48.8584C54.1609 48.0269 55.112 45.6345 54.9895 42.1248ZM21.0501 9.78733C29.467 9.78733 35.3323 12.5871 35.3323 15.0999C35.3323 17.6132 29.4664 20.4136 21.0501 20.4136C12.6338 20.4136 6.76789 17.6132 6.76789 15.0999C6.76789 12.5871 12.6332 9.78733 21.0501 9.78733ZM6.76789 24.2217V18.4411C9.3826 20.7138 14.6674 22.2003 21.0501 22.2003C27.4334 22.2003 32.7182 20.7138 35.3323 18.4411V20.9919L30.7263 23.0693C28.9555 23.8697 28.0586 26.0716 28.0256 29.0876C25.8935 29.5575 23.5075 29.8172 21.0495 29.8172C12.6326 29.8172 6.7673 27.0174 6.7673 24.5046C6.7673 24.4564 6.76082 24.4099 6.75316 24.3635C6.76082 24.3164 6.76789 24.27 6.76789 24.2217ZM6.76789 34.0023V27.8452C9.3826 30.1173 14.6674 31.6039 21.0501 31.6039C23.5134 31.6039 25.9277 31.3651 28.1034 30.9112C28.3037 33.1208 28.8901 35.6431 29.8624 38.3071C27.2507 39.1606 24.2936 39.5971 21.0501 39.5971C12.6332 39.5971 6.76789 36.7973 6.76789 34.2846C6.76789 34.2364 6.76141 34.1899 6.75375 34.1434C6.76082 34.097 6.76789 34.0505 6.76789 34.0023ZM21.0501 49.4712C12.6332 49.4712 6.76789 46.6708 6.76789 44.1581C6.76789 44.1098 6.76141 44.0634 6.75375 44.0169C6.76082 43.9705 6.76789 43.924 6.76789 43.8758V37.6252C9.3826 39.8973 14.6674 41.3839 21.0501 41.3839C24.5222 41.3839 27.6974 40.905 30.5118 39.9706C30.6232 40.2386 30.7387 40.5072 30.8578 40.7764C31.7788 42.8615 32.8142 44.7346 33.9032 46.3629C31.4659 48.2396 26.4469 49.4712 21.0501 49.4712ZM43.0957 51.0626C40.8245 52.087 35.9039 47.8155 32.4724 40.048C29.041 32.2805 29.1789 25.7256 31.4465 24.7012L36.9381 22.2242C36.6341 23.2623 36.4979 24.5195 36.5486 25.9715C36.6612 29.2055 37.6577 33.1018 39.3548 36.9432C41.9589 42.8377 45.4582 47.105 48.5791 48.5892L43.0957 51.0626ZM51.5916 47.2295C49.3222 48.2515 44.4004 43.9824 40.9689 36.2149C39.3625 32.5783 38.4202 28.9178 38.3153 25.9084C38.2216 23.2146 38.8162 21.3773 39.9465 20.8668C40.1698 20.7662 40.4185 20.7168 40.6896 20.7168C43.1711 20.7168 47.4765 24.8786 50.5703 31.8826C52.1768 35.5186 53.119 39.1784 53.2239 42.1879C53.3165 44.8817 52.7219 46.719 51.5916 47.2295Z" fill="#612848"/>
</svg>
