<svg width="60" height="60" viewBox="0 0 60 60" fill="none" xmlns="http://www.w3.org/2000/svg">
<path d="M51.2431 10H16.7848C14.7273 10 13.0786 11.3353 13.0312 13.06V19.7307C13.0312 20.1623 13.4097 20.5116 13.8773 20.5116C14.3449 20.5116 14.7233 20.1623 14.7233 19.7307V13.0798C14.7464 12.2427 15.6714 11.5617 16.7848 11.5617H51.2431C52.3813 11.5617 53.3068 12.2567 53.3068 13.1115V38.592C53.3068 39.4473 52.3807 40.1428 51.2431 40.1428H16.7848C15.6483 40.1428 14.7233 39.4473 14.7233 38.592V34.9442C14.7233 34.5132 14.3449 34.1634 13.8773 34.1634C13.4097 34.1634 13.0312 34.5132 13.0312 34.9442V38.592C13.0312 40.3083 14.7149 41.7045 16.7848 41.7045H33.0388V48.4383H22.2992C21.8317 48.4383 21.4532 48.7881 21.4532 49.2191C21.4532 49.6502 21.8317 50 22.2992 50H45.3756C45.8426 50 46.2216 49.6502 46.2216 49.2191C46.2216 48.7881 45.8426 48.4383 45.3756 48.4383H34.7308V41.704H51.2431C53.3142 41.704 54.9989 40.3078 54.9989 38.5914V13.1115C54.9989 11.3957 53.3142 10 51.2431 10Z" fill="#612848"/>
<path d="M28.3812 22.7412H46.515C46.982 22.7412 47.361 22.3919 47.361 21.9603C47.361 21.5288 46.982 21.1794 46.515 21.1794H28.3812C27.9136 21.1794 27.5352 21.5288 27.5352 21.9603C27.5352 22.3919 27.9136 22.7412 28.3812 22.7412Z" fill="#612848"/>
<path d="M28.3812 27.6863H46.515C46.982 27.6863 47.361 27.3369 47.361 26.9054C47.361 26.4738 46.982 26.1245 46.515 26.1245H28.3812C27.9136 26.1245 27.5352 26.4738 27.5352 26.9054C27.5352 27.3369 27.9136 27.6863 28.3812 27.6863Z" fill="#612848"/>
<path d="M28.3812 32.9048H46.515C46.982 32.9048 47.361 32.5549 47.361 32.1239C47.361 31.6928 46.982 31.343 46.515 31.343H28.3812C27.9136 31.343 27.5352 31.6928 27.5352 32.1239C27.5352 32.5549 27.9136 32.9048 28.3812 32.9048Z" fill="#612848"/>
<path d="M13.7062 29.336C13.9245 29.336 14.141 29.2585 14.3046 29.1075L26.5281 17.8249C26.8586 17.5198 26.8586 17.0253 26.5281 16.7207C26.1976 16.4157 25.6623 16.4157 25.3318 16.7207L13.6143 27.5364L6.33669 22.7543C5.95542 22.5044 5.42806 22.5867 5.15676 22.9375C4.88603 23.2889 4.97458 23.7767 5.35586 24.0266L13.2166 29.1913C13.3638 29.2886 13.5359 29.336 13.7062 29.336Z" fill="#612848"/>
</svg>
