<svg width="60" height="60" viewBox="0 0 60 60" fill="none" xmlns="http://www.w3.org/2000/svg">
<path d="M50.412 10H23.2067C20.6784 10 18.6211 12.0364 18.6211 14.5395V19.4669C18.6211 19.8869 18.9643 20.2268 19.3883 20.2268C19.8124 20.2268 20.1556 19.8869 20.1556 19.4669V14.5395C20.1556 12.8743 21.5244 11.5197 23.2067 11.5197H50.412C52.0958 11.5197 53.4657 12.8743 53.4657 14.5395V33.0848C53.4657 34.7499 52.0958 36.1045 50.412 36.1045H40.2183C40.2055 36.1045 40.1932 36.1075 40.1804 36.1081C40.1676 36.1075 40.1558 36.1045 40.1425 36.1045H33.4726C33.049 36.1045 32.7053 36.4449 32.7053 36.8644V44.7138H25.3816C24.9576 44.7138 24.6144 45.0542 24.6144 45.4737C24.6144 45.8931 24.9576 46.2336 25.3816 46.2336H33.4731H40.1431H48.2412C48.6647 46.2336 49.0084 45.8931 49.0084 45.4737C49.0084 45.0542 48.6647 44.7138 48.2412 44.7138H40.9103V37.6242H50.412C52.9419 37.6242 55.0002 35.5878 55.0002 33.0848V14.5395C55.0002 12.0364 52.9419 10 50.412 10ZM34.2403 44.7138V37.6242H39.3758V44.7138H34.2403Z" fill="#612848"/>
<path d="M20.9141 42.7637C23.7714 42.7637 26.6168 41.6006 28.6572 39.3225C32.4418 35.0951 32.05 28.6074 27.7831 24.8597C23.5151 21.1131 16.9648 21.5016 13.1807 25.7255C9.56899 29.7604 9.77103 35.8489 13.506 39.6543L12.2482 41.0601L11.9577 40.8053C11.6411 40.5277 11.1587 40.5561 10.8779 40.8671L5.19565 47.1512C5.05959 47.3017 4.98951 47.4992 5.00127 47.7003C5.01253 47.9014 5.10409 48.0909 5.256 48.2246L7.04268 49.8057C7.18897 49.9354 7.37158 49.9992 7.55367 49.9992C7.76441 49.9992 7.97413 49.9136 8.12553 49.7459L13.8134 43.4517C13.9495 43.3012 14.0196 43.1031 14.0078 42.901C13.996 42.6994 13.9029 42.5104 13.7505 42.3762L13.3981 42.0672L14.6528 40.665C16.507 42.0672 18.7126 42.7637 20.9141 42.7637ZM7.49331 48.1669L6.85087 47.5985L11.458 42.5044C11.4984 42.631 11.57 42.75 11.6779 42.8443C11.8109 42.9608 11.9741 43.0165 12.1388 43.0266L7.49331 48.1669ZM14.329 26.7341C16.0671 24.7939 18.4896 23.804 20.9238 23.804C23.0031 23.804 25.0905 24.5269 26.7652 25.9965C30.3989 29.1879 30.7329 34.7137 27.5094 38.3139C24.287 41.9122 18.707 42.243 15.0728 39.0505C11.4401 35.8596 11.1066 30.3343 14.329 26.7341Z" fill="#612848"/>
<path d="M36.8687 17.087C37.3744 17.087 37.7843 16.681 37.7843 16.1802C37.7843 15.6794 37.3744 15.2734 36.8687 15.2734C36.363 15.2734 35.9531 15.6794 35.9531 16.1802C35.9531 16.681 36.363 17.087 36.8687 17.087Z" fill="#612848"/>
</svg>
