<svg width="60" height="60" viewBox="0 0 60 60" fill="none" xmlns="http://www.w3.org/2000/svg">
<path d="M37.7591 39.9898C37.2982 39.9898 36.9242 40.3592 36.9242 40.8143V48.3515H9.66989V12.8403H36.9236V19.1071C36.9236 19.5628 37.2977 19.9317 37.7586 19.9317C38.2194 19.9317 38.5935 19.5628 38.5935 19.1071V12.0157C38.5935 11.56 38.2194 11.1912 37.7586 11.1912H8.83495C8.3735 11.1912 8 11.56 8 12.0157V49.1755C8 49.6307 8.3735 50.0001 8.83495 50.0001H37.7586C38.2194 50.0001 38.5935 49.6307 38.5935 49.1755V40.8143C38.5941 40.3586 38.22 39.9898 37.7591 39.9898Z" fill="#612848"/>
<path d="M52.9833 13.3883C52.9388 13.1739 52.8097 12.9859 52.6249 12.8655L48.4329 10.1356C48.2481 10.0158 48.0238 9.97343 47.8044 10.0163C47.5874 10.0603 47.3975 10.1878 47.2756 10.3709L44.2069 14.9759C44.1752 15.0237 44.1491 15.0737 44.1285 15.1248L27.8949 39.4515C27.8609 39.5026 27.8342 39.5576 27.8125 39.6142C27.7184 39.7236 27.6494 39.8566 27.6238 40.0083L26.5701 46.2273C26.5145 46.5549 26.6636 46.8826 26.9475 47.0607C27.0839 47.1453 27.2386 47.1877 27.3934 47.1877C27.5609 47.1877 27.7285 47.1376 27.8715 47.0387L33.0999 43.4309C33.15 43.3963 33.1946 43.3567 33.2347 43.3138C33.3271 43.2539 33.4117 43.1802 33.4762 43.0835L49.7187 18.7447C49.751 18.6958 49.7771 18.6441 49.7983 18.5908L52.8614 14.0089C52.9839 13.8258 53.0279 13.6032 52.9833 13.3883ZM29.11 41.2298L31.3048 42.658L28.545 44.5622L29.11 41.2298ZM32.5416 41.4876L29.7485 39.6703L45.0719 16.708L47.8651 18.5259L32.5416 41.4876ZM48.768 17.1384L45.9759 15.3211L48.2113 11.9667L51.0078 13.7879L48.768 17.1384Z" fill="#612848"/>
<path d="M28.7218 21.6094C29.1832 21.6094 29.5567 21.2405 29.5567 20.7848C29.5567 20.3291 29.1832 19.9602 28.7218 19.9602H13.1885C12.727 19.9602 12.3535 20.3291 12.3535 20.7848C12.3535 21.2405 12.727 21.6094 13.1885 21.6094H28.7218Z" fill="#612848"/>
<path d="M13.3838 28.4016H28.9132C29.3746 28.4016 29.7481 28.0327 29.7481 27.577C29.7481 27.1213 29.3746 26.7524 28.9132 26.7524H13.3838C12.9223 26.7524 12.5488 27.1213 12.5488 27.577C12.5488 28.0327 12.9223 28.4016 13.3838 28.4016Z" fill="#612848"/>
</svg>
