<svg width="60" height="60" viewBox="0 0 60 60" fill="none" xmlns="http://www.w3.org/2000/svg">
<path d="M30.4995 31.4182C28.101 31.4206 25.8015 32.3648 24.1055 34.0435C22.4095 35.7222 21.4556 37.9983 21.4531 40.3723C21.4531 40.555 21.5264 40.7302 21.6569 40.8593C21.7874 40.9885 21.9644 41.0611 22.149 41.0611H38.85C39.0346 41.0611 39.2116 40.9885 39.3421 40.8593C39.4726 40.7302 39.5459 40.555 39.5459 40.3723C39.5435 37.9983 38.5896 35.7222 36.8936 34.0435C35.1976 32.3648 32.898 31.4206 30.4995 31.4182ZM22.8774 39.6835C23.047 37.7979 23.9236 36.0434 25.3347 34.7655C26.7459 33.4876 28.5892 32.7788 30.5018 32.7788C32.4145 32.7788 34.2578 33.4876 35.6689 34.7655C37.0801 36.0434 37.9567 37.7979 38.1263 39.6835H22.8774Z" fill="#612848"/>
<path d="M30.0362 29.352C31.0914 29.352 32.1229 29.0423 33.0002 28.4621C33.8776 27.8818 34.5614 27.0571 34.9652 26.0922C35.369 25.1273 35.4746 24.0655 35.2688 23.0412C35.0629 22.0169 34.5548 21.0759 33.8087 20.3374C33.0626 19.5989 32.1119 19.096 31.077 18.8922C30.0421 18.6885 28.9694 18.7931 27.9946 19.1927C27.0197 19.5924 26.1865 20.2692 25.6003 21.1376C25.0141 22.006 24.7012 23.027 24.7012 24.0714C24.7024 25.4715 25.2649 26.814 26.2651 27.804C27.2654 28.794 28.6217 29.3508 30.0362 29.352ZM30.0362 20.1683C30.8161 20.1683 31.5785 20.3972 32.227 20.8261C32.8755 21.255 33.3809 21.8646 33.6794 22.5777C33.9778 23.2909 34.0559 24.0757 33.9038 24.8328C33.7516 25.59 33.376 26.2854 32.8246 26.8313C32.2731 27.3771 31.5704 27.7488 30.8055 27.8994C30.0406 28.05 29.2477 27.9728 28.5272 27.6773C27.8066 27.3819 27.1908 26.8817 26.7575 26.2398C26.3242 25.598 26.0929 24.8433 26.0929 24.0714C26.0942 23.0366 26.51 22.0445 27.2492 21.3128C27.9885 20.5811 28.9908 20.1695 30.0362 20.1683Z" fill="#612848"/>
<path d="M52.3041 29.5816H49.9613C49.7281 24.7098 47.6386 20.1064 44.1137 16.6984C40.5887 13.2903 35.8901 11.3308 30.9639 11.2143V8.68878C30.9639 8.5061 30.8906 8.33091 30.7601 8.20174C30.6296 8.07257 30.4526 8 30.268 8C30.0835 8 29.9065 8.07257 29.776 8.20174C29.6455 8.33091 29.5722 8.5061 29.5722 8.68878V11.2372C24.7331 11.471 20.155 13.4788 16.7291 16.8697C13.3033 20.2605 11.2749 24.7919 11.0387 29.5816H8.69588C8.51132 29.5816 8.33432 29.6542 8.20382 29.7834C8.07332 29.9125 8 30.0877 8 30.2704C8 30.4531 8.07332 30.6283 8.20382 30.7574C8.33432 30.8866 8.51132 30.9592 8.69588 30.9592H11.0155C11.1331 35.8351 13.1129 40.4858 16.5561 43.9747C19.9993 47.4637 24.6501 49.5319 29.5722 49.7628V52.3112C29.5722 52.4939 29.6455 52.6691 29.776 52.7983C29.9065 52.9274 30.0835 53 30.268 53C30.4526 53 30.6296 52.9274 30.7601 52.7983C30.8906 52.6691 30.9639 52.4939 30.9639 52.3112V49.7857C35.9714 49.669 40.7412 47.6481 44.283 44.1424C47.8249 40.6367 49.8667 35.9156 49.9845 30.9592H52.3041C52.4887 30.9592 52.6657 30.8866 52.7962 30.7574C52.9267 30.6283 53 30.4531 53 30.2704C53 30.0877 52.9267 29.9125 52.7962 29.7834C52.6657 29.6542 52.4887 29.5816 52.3041 29.5816ZM30.9639 48.4082V46.3418C30.9639 46.1592 30.8906 45.984 30.7601 45.8548C30.6296 45.7256 30.4526 45.6531 30.268 45.6531C30.0835 45.6531 29.9065 45.7256 29.776 45.8548C29.6455 45.984 29.5722 46.1592 29.5722 46.3418V48.3852C25.0193 48.1553 20.7219 46.2326 17.5394 43.0018C14.357 39.7709 12.524 35.47 12.4072 30.9592H14.7268C14.9114 30.9592 15.0884 30.8866 15.2189 30.7574C15.3494 30.6283 15.4227 30.4531 15.4227 30.2704C15.4227 30.0877 15.3494 29.9125 15.2189 29.7834C15.0884 29.6542 14.9114 29.5816 14.7268 29.5816H12.4304C12.666 25.1574 14.5476 20.976 17.7127 17.8432C20.8778 14.7104 25.1023 12.848 29.5722 12.6148V14.6582C29.5722 14.8408 29.6455 15.016 29.776 15.1452C29.9065 15.2744 30.0835 15.3469 30.268 15.3469C30.4526 15.3469 30.6296 15.2744 30.7601 15.1452C30.8906 15.016 30.9639 14.8408 30.9639 14.6582V12.5918C35.5212 12.7075 39.8665 14.5217 43.1307 17.6717C46.3948 20.8216 48.3373 25.0752 48.5696 29.5816H46.2732C46.0886 29.5816 45.9116 29.6542 45.7811 29.7834C45.6506 29.9125 45.5773 30.0877 45.5773 30.2704C45.5773 30.4531 45.6506 30.6283 45.7811 30.7574C45.9116 30.8866 46.0886 30.9592 46.2732 30.9592H48.5928C48.4753 35.5503 46.5803 39.9213 43.2993 43.1687C40.0184 46.4162 35.6024 48.2919 30.9639 48.4082Z" fill="#612848"/>
</svg>
