<svg width="60" height="60" viewBox="0 0 60 60" fill="none" xmlns="http://www.w3.org/2000/svg">
<path d="M49.0504 8.60679H36.805V6.41808C36.805 5.91069 36.3799 5.5 35.856 5.5H24.1433C23.6189 5.5 23.1944 5.91069 23.1944 6.41808V8.60679H10.949C10.4245 8.60679 10 9.01748 10 9.52487V54.5819C10 55.0887 10.4245 55.5 10.949 55.5H49.051C49.5749 55.5 50 55.0887 50 54.5819V9.52487C49.9994 9.01748 49.5742 8.60679 49.0504 8.60679ZM25.0923 7.33616H34.9071V11.0391H25.0923V7.33616ZM48.1014 53.6638H11.8979V10.443H23.1944V11.9572C23.1944 12.4646 23.6189 12.8753 24.1433 12.8753H35.856C36.3799 12.8753 36.805 12.4646 36.805 11.9572V10.443H48.1014V53.6638Z" fill="#612848"/>
<path d="M18.9908 22.7581H15.324C14.7995 22.7581 14.375 23.1687 14.375 23.6761C14.375 24.1835 14.7995 24.5942 15.324 24.5942H18.9908C19.5152 24.5942 19.9397 24.1835 19.9397 23.6761C19.9397 23.1687 19.5152 22.7581 18.9908 22.7581Z" fill="#612848"/>
<path d="M22.5605 23.6761C22.5605 24.1835 22.985 24.5942 23.5095 24.5942H44.6733C45.1971 24.5942 45.6222 24.1835 45.6222 23.6761C45.6222 23.1687 45.1971 22.7581 44.6733 22.7581H23.5095C22.9857 22.7581 22.5605 23.1694 22.5605 23.6761Z" fill="#612848"/>
<path d="M18.9908 30.9536H15.324C14.7995 30.9536 14.375 31.3649 14.375 31.8717C14.375 32.3785 14.7995 32.7898 15.324 32.7898H18.9908C19.5152 32.7898 19.9397 32.3785 19.9397 31.8717C19.9397 31.3649 19.5152 30.9536 18.9908 30.9536Z" fill="#612848"/>
<path d="M44.6733 30.9536H23.5095C22.985 30.9536 22.5605 31.3649 22.5605 31.8717C22.5605 32.3785 22.985 32.7898 23.5095 32.7898H44.6733C45.1971 32.7898 45.6222 32.3785 45.6222 31.8717C45.6222 31.3649 45.1971 30.9536 44.6733 30.9536Z" fill="#612848"/>
<path d="M18.9908 39.1448H15.324C14.7995 39.1448 14.375 39.5561 14.375 40.0629C14.375 40.5696 14.7995 40.9809 15.324 40.9809H18.9908C19.5152 40.9809 19.9397 40.5696 19.9397 40.0629C19.9397 39.5561 19.5152 39.1448 18.9908 39.1448Z" fill="#612848"/>
<path d="M44.6733 39.1448H23.5095C22.985 39.1448 22.5605 39.5561 22.5605 40.0629C22.5605 40.5696 22.985 40.9809 23.5095 40.9809H44.6733C45.1971 40.9809 45.6222 40.5696 45.6222 40.0629C45.6222 39.5561 45.1971 39.1448 44.6733 39.1448Z" fill="#612848"/>
</svg>
