<svg width="60" height="60" viewBox="0 0 60 60" fill="none" xmlns="http://www.w3.org/2000/svg">
<path d="M49.3149 31.5721H43.5828V26.6289H46.8903V28.2656C46.8903 28.6442 47.1972 28.9507 47.5754 28.9507C47.9535 28.9507 48.2604 28.6442 48.2604 28.2656V23.6207C48.2604 23.2421 47.9535 22.9356 47.5754 22.9356C47.1972 22.9356 46.8903 23.2421 46.8903 23.6207V25.2588H43.5828V20.1393C43.5828 20.0959 43.5778 20.0535 43.5701 20.0124C43.5691 20.0087 43.5696 20.0051 43.5687 20.001C43.5568 19.9439 43.5358 19.8904 43.5111 19.8397C43.5034 19.8238 43.4947 19.8082 43.4856 19.7927C43.4586 19.7475 43.4285 19.705 43.3924 19.6671C43.3878 19.6625 43.3856 19.6566 43.381 19.652L34.4008 10.7014C34.4003 10.7009 34.4003 10.7009 34.3999 10.7005L34.3994 10.7C34.399 10.6996 34.399 10.6996 34.3985 10.6996C34.356 10.6571 34.3063 10.6228 34.2537 10.5927C34.2414 10.5859 34.2295 10.579 34.2172 10.5726C34.1647 10.5466 34.1094 10.5256 34.0505 10.5137C34.0459 10.5128 34.0409 10.5132 34.0364 10.5123C33.9971 10.5055 33.9573 10.5 33.9158 10.5H17.104C16.7254 10.5 16.419 10.8064 16.419 11.185V25.2584H13.1134V23.6202C13.1134 23.2416 12.8069 22.9352 12.4283 22.9352C12.0497 22.9352 11.7432 23.2416 11.7432 23.6202V28.2652C11.7432 28.6438 12.0497 28.9502 12.4283 28.9502C12.8069 28.9502 13.1134 28.6438 13.1134 28.2652V26.6284H16.419V31.5716H10.6851C10.3064 31.5716 10 31.8785 10 32.2567V49.815C10 50.1931 10.3064 50.5 10.6851 50.5H49.3149C49.6931 50.5 50 50.1931 50 49.815V32.2571C50 31.879 49.6931 31.5721 49.3149 31.5721ZM34.6008 12.8355L41.24 19.4525H34.6008V12.8355ZM17.7891 11.8705H33.2307V20.1375C33.2307 20.5161 33.5376 20.8225 33.9158 20.8225H42.2127V31.5721H17.7891V11.8705ZM48.6299 49.1304H11.3701V32.9421H48.6299V49.1304Z" fill="#612848"/>
<path d="M38.7827 38.6828H42.2939C42.672 38.6828 42.9789 38.3759 42.9789 37.9978C42.9789 37.6196 42.672 37.3127 42.2939 37.3127H38.7827C38.4046 37.3127 38.0977 37.6196 38.0977 37.9978C38.0977 38.3759 38.4041 38.6828 38.7827 38.6828Z" fill="#612848"/>
<path d="M17.7124 38.6828H21.2226C21.6012 38.6828 21.9077 38.3759 21.9077 37.9978C21.9077 37.6196 21.6012 37.3127 21.2226 37.3127H17.7124C17.3338 37.3127 17.0273 37.6196 17.0273 37.9978C17.0273 38.3759 17.3342 38.6828 17.7124 38.6828Z" fill="#612848"/>
<path d="M24.7358 38.6828H28.2497C28.6283 38.6828 28.9348 38.3759 28.9348 37.9978C28.9348 37.6196 28.6283 37.3127 28.2497 37.3127H24.7358C24.3572 37.3127 24.0508 37.6196 24.0508 37.9978C24.0508 38.3759 24.3577 38.6828 24.7358 38.6828Z" fill="#612848"/>
<path d="M31.7573 38.6828H35.2735C35.6516 38.6828 35.9585 38.3759 35.9585 37.9978C35.9585 37.6196 35.6516 37.3127 35.2735 37.3127H31.7573C31.3792 37.3127 31.0723 37.6196 31.0723 37.9978C31.0723 38.3759 31.3792 38.6828 31.7573 38.6828Z" fill="#612848"/>
<path d="M24.7323 43.8118H21.2202C20.8416 43.8118 20.5352 44.1187 20.5352 44.4968C20.5352 44.8749 20.8416 45.1818 21.2202 45.1818H24.7323C25.1109 45.1818 25.4173 44.8749 25.4173 44.4968C25.4173 44.1187 25.1109 43.8118 24.7323 43.8118Z" fill="#612848"/>
<path d="M31.7548 43.8118H28.2437C27.865 43.8118 27.5586 44.1187 27.5586 44.4968C27.5586 44.8749 27.865 45.1818 28.2437 45.1818H31.7548C32.1329 45.1818 32.4399 44.8749 32.4399 44.4968C32.4399 44.1187 32.1329 43.8118 31.7548 43.8118Z" fill="#612848"/>
<path d="M38.7801 43.8118H35.2671C34.8889 43.8118 34.582 44.1187 34.582 44.4968C34.582 44.8749 34.8889 45.1818 35.2671 45.1818H38.7801C39.1582 45.1818 39.4651 44.8749 39.4651 44.4968C39.4651 44.1187 39.1582 43.8118 38.7801 43.8118Z" fill="#612848"/>
</svg>
