<svg width="60" height="60" viewBox="0 0 60 60" fill="none" xmlns="http://www.w3.org/2000/svg">
<path fill-rule="evenodd" clip-rule="evenodd" d="M10.8399 8H49.1595C49.6232 8 49.9994 8.35695 50 8.79796V52.202C50 52.6425 49.6237 53 49.1601 53H10.8399C10.3757 53 10 52.6425 10 52.202V8.79796C10 8.35695 10.3757 8 10.8399 8ZM11.6798 51.4036H48.3196L48.3202 9.59591H11.6798V51.4036ZM44.2077 25.1795H16.043C15.5788 25.1795 15.2031 24.822 15.2031 24.381V13.4979C15.2031 13.0569 15.5788 12.7 16.043 12.7H44.2077C44.6719 12.7 45.0476 13.0569 45.0476 13.4979V24.3815C45.0476 24.822 44.6719 25.1795 44.2077 25.1795ZM43.3678 14.2964H16.8829V23.5836H43.3678V14.2964ZM22.0434 29.0633H16.3399C15.8757 29.0633 15.5 29.4208 15.5 29.8613V35.2805C15.5 35.7209 15.8757 36.0784 16.3399 36.0784H22.0434C22.5076 36.0784 22.8833 35.7209 22.8833 35.2805V29.8613C22.8833 29.4208 22.507 29.0633 22.0434 29.0633ZM21.2035 34.4825H17.1798V30.6592H21.2035V34.4825ZM16.3399 39.5634H22.0434C22.507 39.5634 22.8833 39.9204 22.8833 40.3614V45.78C22.8833 46.2205 22.5076 46.578 22.0434 46.578H16.3399C15.8757 46.578 15.5 46.2205 15.5 45.78V40.3614C15.5 39.9209 15.8757 39.5634 16.3399 39.5634ZM17.1798 44.9821H21.2035V41.1588H17.1798V44.9821ZM43.912 29.0633H38.209C37.7449 29.0633 37.3691 29.4208 37.3691 29.8613V35.2805C37.3691 35.7209 37.7449 36.0784 38.209 36.0784H43.9125C44.3767 36.0784 44.7524 35.7209 44.7524 35.2805V29.8613C44.7519 29.4208 44.3762 29.0633 43.912 29.0633ZM43.0721 34.4825H39.0489V30.6592H43.0726L43.0721 34.4825ZM38.209 39.5634H43.912C44.3762 39.5634 44.7519 39.9204 44.7524 40.3614V45.78C44.7524 46.2205 44.3767 46.578 43.9125 46.578H38.209C37.7449 46.578 37.3691 46.2205 37.3691 45.78V40.3614C37.3691 39.9209 37.7449 39.5634 38.209 39.5634ZM39.0489 44.9821H43.0721L43.0726 41.1588H39.0489V44.9821ZM33.1667 28.8853H27.4649C27.0007 28.8853 26.625 29.2428 26.625 29.6833V35.1025C26.625 35.5429 27.0007 35.9004 27.4649 35.9004H33.1667C33.6309 35.9004 34.0066 35.5429 34.0066 35.1025V29.6833C34.0066 29.2428 33.6303 28.8853 33.1667 28.8853ZM32.3268 34.3045H28.3048V30.4812H32.3268V34.3045ZM27.4649 39.3846H33.1667C33.6303 39.3846 34.0066 39.7421 34.0066 40.1826V45.6023C34.0066 46.0428 33.6309 46.4003 33.1667 46.4003H27.4649C27.0007 46.4003 26.625 46.0428 26.625 45.6023V40.1826C26.625 39.7421 27.0007 39.3846 27.4649 39.3846ZM28.3048 44.8038H32.3268V40.98H28.3048V44.8038Z" fill="#612848"/>
</svg>
